<?xml version="1.0" standalone="no"?>
<!DOCTYPE svg PUBLIC "-//W3C//DTD SVG 1.1//EN" "http://www.w3.org/Graphics/SVG/1.1/DTD/svg11.dtd" >
<svg xmlns="http://www.w3.org/2000/svg" xmlns:xlink="http://www.w3.org/1999/xlink" version="1.1">
<metadata></metadata>
<defs>
<font id="akzidenz-grotesk_bqMdCn" horiz-adv-x="641" >
<font-face units-per-em="2048" ascent="1536" descent="-512" />
<missing-glyph horiz-adv-x="382" />
<glyph unicode="&#xfb01;" horiz-adv-x="724" d="M18 958v140h93v198q0 51 12 83.5t36.5 46t46.5 17t58 3.5q52 0 105 -6v-140h-29q-32 0 -46.5 -12t-14.5 -51v-139h94v-140h-97v-958h-167v958h-91zM471 0v1098h164v-1098h-164zM473 1223v217h164v-217h-164z" />
<glyph unicode="&#xfb02;" horiz-adv-x="724" d="M18 958v140h93v198q0 51 12 83.5t36.5 46t46.5 17t58 3.5q52 0 105 -6v-140h-29q-32 0 -46.5 -12t-14.5 -51v-139h94v-140h-97v-958h-167v958h-91zM469 0v1446h168v-1446h-168z" />
<glyph horiz-adv-x="0" />
<glyph horiz-adv-x="682" />
<glyph unicode=" "  horiz-adv-x="382" />
<glyph unicode="&#x09;" horiz-adv-x="382" />
<glyph unicode="&#xa0;" horiz-adv-x="382" />
<glyph unicode="!" horiz-adv-x="382" d="M143 0v264h166v-264h-166zM143 926v506h164v-558l-37 -421h-88z" />
<glyph unicode="&#x22;" horiz-adv-x="522" d="M59 1518h158l-47 -592h-59zM303 1518h160l-47 -592h-60z" />
<glyph unicode="#" horiz-adv-x="1099" d="M41 467v168h256l18 207h-247v164h262l43 440h176l-45 -440h160l43 440h172l-43 -440h221v-164h-234l-18 -207h227v-168h-246l-43 -467h-172l43 467h-157l-45 -467h-174l43 467h-240zM471 635h160l18 207h-160z" />
<glyph unicode="$" horiz-adv-x="681" d="M61 489v27h170v-37q0 -194 21 -268t94 -74q115 0 115 170q0 65 -19 123.5t-36 84.5t-44 60l-94 121q-98 124 -149 231t-51 236q0 68 19 122.5t45 85t59.5 51.5t55.5 28.5t40 9.5v119h94v-117q54 -10 91 -27t70 -53t49.5 -102t16.5 -162v-112h-162v151q0 86 -31.5 121 t-70.5 35q-45 0 -74.5 -38t-29.5 -116q0 -60 28 -129t111 -180l88 -117q86 -113 127 -209.5t41 -214.5q0 -73 -18 -130t-44 -90t-62 -55.5t-66 -31t-62 -12.5v-144h-94v144q-96 20 -150 80q-51 55 -63.5 142.5t-14.5 276.5z" />
<glyph unicode="%" horiz-adv-x="1193" d="M45 809v399q0 27 0.5 41.5t2.5 41t7.5 42.5t14 38.5t23 35.5t34 26t48 19t63.5 6q39 0 69 -9t49.5 -21t33 -34t20 -39t10 -45.5t4 -44t0.5 -42.5v-480q0 -33 -1 -52.5t-11 -54t-28.5 -54.5t-56 -36t-91.5 -16q-35 0 -63 5.5t-47.5 18.5t-33.5 26.5t-22.5 37t-14 41 t-7.5 48t-2.5 49t-0.5 53.5zM164 743q0 -23 0.5 -34t4 -28.5t11 -26t21.5 -15t35 -6.5q20 0 34 6t20.5 13.5t10 25.5t4 29t0.5 36v517q0 26 -1 38t-7 29.5t-21 25t-40 7.5t-40.5 -7t-22 -22.5t-8 -30t-1.5 -40.5v-517zM236 -10l630 1507l101 -41l-633 -1507zM770 266v400 q0 31 0.5 47.5t4 46.5t10.5 48t21 41t34 35.5t51.5 21.5t71.5 9q39 0 69 -9t49.5 -21t33 -34t20 -39t10 -45.5t4 -44t0.5 -42.5v-479q0 -33 -1 -52.5t-11 -54t-28.5 -54.5t-56 -36t-91.5 -16q-40 0 -70.5 9t-50.5 21t-34 36t-21 43t-10.5 53t-4 55t-0.5 61zM889 201 q0 -23 0.5 -34.5t4 -29t11 -26t21.5 -15t35 -6.5q20 0 34 6.5t20.5 14t10 25t4 29t0.5 36.5v516q0 26 -1 38t-7 29.5t-21 25t-40 7.5t-40.5 -7t-22 -22.5t-8 -30t-1.5 -40.5v-516z" />
<glyph unicode="&#x26;" horiz-adv-x="894" d="M59 371q0 71 15 133t45.5 115.5t47 77t48.5 63.5q-86 172 -86 330q0 41 7.5 83.5t28 89t51 81.5t81 58t113.5 23q95 0 164 -62.5t69 -186.5q0 -111 -60 -215t-159 -218q51 -120 178 -333q24 70 32.5 128t12.5 187h164q-2 -148 -19.5 -260t-70.5 -209q54 -47 92 -64 t82 -20v-186q-85 13 -137.5 34.5t-124.5 77.5q-19 -22 -35 -36t-46.5 -35.5t-72 -33t-90.5 -11.5q-81 0 -145 31.5t-104 86t-60.5 124t-20.5 147.5zM229 393q0 -61 15.5 -113t53 -89t91.5 -37q70 0 119 73q-116 175 -207 365q-37 -55 -54.5 -99t-17.5 -100zM297 1122 q0 -104 47 -215q31 39 47.5 62.5t40 62.5t34.5 76t11 74q0 100 -78 100q-44 0 -73 -41t-29 -119z" />
<glyph unicode="'" horiz-adv-x="276" d="M59 1518h158l-47 -592h-59z" />
<glyph unicode="(" horiz-adv-x="512" d="M63 561q0 181 41.5 350.5t137.5 325.5t237 254v-121q-61 -55 -96 -117q-76 -130 -106.5 -339.5t-30.5 -421.5q0 -549 231 -801v-121q-110 79 -192.5 195t-129.5 249t-69.5 269.5t-22.5 277.5z" />
<glyph unicode=")" horiz-adv-x="512" d="M33 -311q233 197 233 882q0 96 -9 192t-29.5 198t-58.5 196.5t-91 163.5q-1 1 -41 47v123q120 -96 192 -195q111 -153 165.5 -368.5t54.5 -431.5q0 -241 -79.5 -468.5t-238.5 -379.5q-60 -57 -98 -78v119z" />
<glyph unicode="*" horiz-adv-x="655" d="M31 1184l35 119l194 -54v203h125v-207l197 68l41 -115l-197 -72l121 -161l-98 -78l-125 166l-113 -166l-102 76l112 163z" />
<glyph unicode="+" horiz-adv-x="1142" d="M170 532v156h315v344h177v-344h311v-156h-311v-344h-177v344h-315z" />
<glyph unicode="," horiz-adv-x="299" d="M63 0v264h164v-219q0 -72 -3.5 -109.5t-19 -78.5t-46.5 -70.5t-86 -62.5v45q46 33 59.5 76t13.5 110v45h-82z" />
<glyph unicode="-" horiz-adv-x="468" d="M53 510v172h363v-172h-363z" />
<glyph unicode="." horiz-adv-x="299" d="M61 0v270h168v-270h-168z" />
<glyph unicode="/" horiz-adv-x="512" d="M18 0l314 1446h157l-311 -1446h-160z" />
<glyph unicode="0" horiz-adv-x="724" d="M66 332v835q0 43 5.5 79.5t24 78.5t50 71t88.5 48.5t133 19.5q77 0 133 -20t86 -49.5t47 -74t21.5 -80.5t4.5 -83v-846q0 -107 -17 -161.5t-62 -94.5q-79 -69 -222 -69q-23 0 -42.5 1.5t-59.5 10.5t-70 25.5t-61 51.5t-45 83q-14 45 -14 174zM242 272q0 -68 23 -102.5 t97 -34.5q62 0 91.5 30.5t29.5 100.5v905q0 36 -4 60t-15.5 47.5t-37 35t-64.5 11.5q-120 0 -120 -129v-924z" />
<glyph unicode="1" horiz-adv-x="724" d="M137 1092v141q184 20 217 207h125v-1440h-182v1092h-160z" />
<glyph unicode="2" horiz-adv-x="724" d="M74 967v260q0 78 39 132t98 76.5t133 22.5q51 0 91 -5t81.5 -21.5t69.5 -43.5t45.5 -74.5t17.5 -111.5v-112q0 -109 -5 -160.5t-23 -100.5q-23 -60 -158 -262q-1 -1 -21.5 -30t-37 -53t-41.5 -67t-42.5 -81t-33 -85t-19.5 -89h389v-162h-577v74q0 56 6 101.5t27 116 t69.5 160t124.5 197.5q18 26 52.5 72.5t44.5 61.5t28.5 47.5t22.5 55.5t9 59.5t5 84.5v148q0 76 -26.5 107.5t-82.5 31.5q-36 0 -59.5 -10.5t-33.5 -30t-13.5 -37t-3.5 -41.5v-231h-176z" />
<glyph unicode="3" horiz-adv-x="724" d="M68 223v215h174v-186q0 -59 23 -89t87 -30q65 0 88 33.5t23 101.5v269q0 40 -7 70t-22 48t-30.5 29t-41 16t-43 6t-47.5 1h-67v170h37q107 0 149.5 36.5t42.5 106.5v211q0 16 -1 25.5t-6 24.5t-14 24t-28 15.5t-45 6.5q-56 0 -77 -25.5t-21 -80.5v-129h-174v153 q0 39 12.5 74.5t41.5 69.5t86.5 54.5t137.5 20.5q262 0 262 -211v-243q0 -46 -7.5 -78.5t-17.5 -51t-31.5 -32t-37.5 -18.5t-47 -13q44 -6 76 -22t50.5 -38t29 -56t13.5 -67t3 -79v-250q0 -42 -1 -68t-7 -63.5t-17.5 -60.5t-33 -49.5t-52 -41t-76.5 -24.5t-106 -10 q-78 0 -134.5 19t-86.5 53.5t-43.5 74.5t-13.5 88z" />
<glyph unicode="4" horiz-adv-x="724" d="M16 334v147l306 957h266v-951h102v-153h-102v-334h-172v334h-400zM180 487h234v758z" />
<glyph unicode="5" horiz-adv-x="724" d="M84 231v213h174v-204q0 -48 25 -80.5t79 -32.5q38 0 62.5 12t35 34.5t14 42.5t3.5 48v484q0 22 -2.5 36.5t-11.5 37t-33.5 34.5t-62.5 12q-68 0 -93.5 -33t-25.5 -94v-30h-154v727h518v-166h-356v-311q68 59 170 59q227 0 227 -234v-534q0 -270 -272 -270q-29 0 -48.5 1 t-53.5 6t-57.5 14t-51.5 27.5t-45 44t-29 66t-12 90.5z" />
<glyph unicode="6" horiz-adv-x="724" d="M84 279v872q0 52 1.5 79.5t13 68t34.5 71.5q72 92 246 92q217 0 264 -168q10 -39 10 -123v-145h-168v158q0 17 -0.5 28t-6.5 32.5t-17 35t-34 24.5t-56 11q-38 0 -62 -12.5t-34.5 -37t-13.5 -47t-3 -57.5v-362q64 86 178 86q64 0 109.5 -21t69 -57.5t34 -77t10.5 -88.5 v-375q0 -25 -1.5 -45.5t-8 -50.5t-18 -54t-33.5 -49t-51.5 -42t-75 -28t-102.5 -11q-78 0 -134.5 22.5t-84.5 52.5t-44 75.5t-19 75t-3 67.5zM258 268q0 -21 1 -33.5t7 -35.5t17 -36.5t35 -24.5t57 -11q32 0 55 10.5t33.5 23.5t16.5 35t6.5 33t0.5 29v336q0 23 -0.5 35.5 t-6.5 35t-17 34.5t-33.5 22t-54.5 10q-33 0 -57 -11t-35 -24.5t-17 -36t-7 -35t-1 -32.5v-324z" />
<glyph unicode="7" horiz-adv-x="724" d="M86 1268v164h543v-156q-65 -139 -115 -306.5t-76 -322t-37.5 -247.5t-17.5 -171q-8 -153 -10 -229h-209q24 416 100 713q75 288 203 555h-381z" />
<glyph unicode="8" horiz-adv-x="724" d="M66 283v186q0 103 15.5 159t49 84t98.5 44q-91 34 -117 77t-26 121v236q0 116 66.5 188t212.5 72q150 0 216 -71t66 -216v-137q0 -47 -2 -76.5t-10.5 -63t-24.5 -55.5t-45 -42t-71 -33q33 -7 58.5 -19t42 -25t28 -33t17.5 -35t9 -41t3.5 -41t0.5 -44v-256q0 -41 -6 -76 t-25.5 -74t-51 -66.5t-86.5 -45.5t-128 -18q-63 0 -112.5 14t-91 46.5t-64 93.5t-22.5 147zM240 268q0 -19 0.5 -31t7 -35.5t17.5 -37.5t35 -25.5t58 -11.5q35 0 59 11.5t36 26t18 43.5t7 48t1 57v232q0 64 -23 97.5t-96 33.5q-25 0 -44.5 -5.5t-32 -13t-21.5 -24t-13 -28 t-6 -37t-2.5 -39t-0.5 -44.5v-217zM260 948q0 -18 0.5 -28.5t6 -29.5t15 -30t29.5 -20t49 -9q32 0 54.5 10t33.5 23t17 35.5t7 37t1 38.5v186q0 27 -1 43t-6.5 39t-16 36t-31 22.5t-49.5 9.5q-31 0 -53 -10t-32.5 -22t-16.5 -33t-6.5 -32.5t-0.5 -31.5v-234z" />
<glyph unicode="9" horiz-adv-x="724" d="M66 846v364q0 119 76 187.5t214 68.5q70 0 122.5 -18t83 -45.5t49.5 -66t25.5 -74.5t6.5 -76v-914q0 -146 -72.5 -215t-224.5 -69q-127 0 -200.5 63.5t-73.5 198.5v176h168v-160q0 -17 0.5 -27.5t6.5 -32t17 -34.5t34 -24t56 -11q36 0 60.5 12t35.5 35t15 45t4 52v370 q-11 -15 -25.5 -30t-58 -35.5t-96.5 -20.5q-58 0 -100 17t-65.5 43t-37 65.5t-17 74.5t-3.5 81zM238 856q0 -23 0.5 -35.5t6.5 -35t17 -34.5t33.5 -22t54.5 -10q34 0 58 11t35.5 24.5t17.5 36t7 35t1 32.5v324q0 23 -1 36.5t-7 36.5t-17.5 36t-35 23.5t-56.5 10.5t-56 -10 t-34 -22t-17 -33.5t-6.5 -33t-0.5 -32.5v-338z" />
<glyph unicode=":" horiz-adv-x="382" d="M147 0v270h170v-270h-170zM150 662v264h167v-264h-167z" />
<glyph unicode=";" horiz-adv-x="382" d="M141 0v270h168v-247q0 -115 -32.5 -183t-126.5 -116v47q46 33 59.5 73t13.5 103v53h-82zM143 664v264h168v-264h-168z" />
<glyph unicode="&#x3c;" horiz-adv-x="1144" d="M180 553v164l733 399v-176l-567 -299l567 -295v-190z" />
<glyph unicode="=" horiz-adv-x="1144" d="M174 369v151h797v-151h-797zM174 719v151h797v-151h-797z" />
<glyph unicode="&#x3e;" horiz-adv-x="1144" d="M231 156v174l568 299l-568 295v192l734 -397v-164z" />
<glyph unicode="?" horiz-adv-x="681" d="M109 1030v131q0 144 69 211.5t189 67.5q122 0 196 -75t74 -218q0 -139 -88 -311q-20 -40 -53 -101.5t-42.5 -82t-23.5 -58t-17.5 -67.5t-4.5 -74h-146q0 38 1.5 67t8 60t9.5 47.5t18 52t22 50.5t31.5 66t36.5 76q74 156 74 291q0 127 -96 127q-28 0 -47.5 -10.5 t-29.5 -25t-16 -38t-7 -41t-1 -42.5v-103h-157zM256 0v264h164v-264h-164z" />
<glyph unicode="@" horiz-adv-x="1642" d="M111 483q0 158 43.5 306.5t123.5 268.5t185.5 210.5t237 140t270.5 49.5q257 0 407 -160t150 -434q0 -183 -61.5 -350.5t-163 -269t-211.5 -101.5q-69 0 -107 43t-45 133q-120 -174 -268 -174q-114 0 -179 90t-65 246q0 153 54 286t145.5 211.5t197.5 78.5 q75 0 125 -39.5t88 -130.5l27 127h129l-98 -492q-23 -118 -23 -174q0 -43 15 -67.5t42 -24.5q69 0 135 101.5t104 242t38 260.5q0 226 -121.5 359t-327.5 133q-193 0 -359.5 -119t-264.5 -321t-98 -435q0 -278 162.5 -448t428.5 -170q155 0 299 63q92 40 157.5 87t170.5 149 l66 -90q-106 -105 -175 -153.5t-176 -94.5q-172 -72 -340 -72q-214 0 -377 91.5t-252 258.5t-89 385zM575 483q0 -99 40 -158t106 -59q69 0 131.5 62.5t100.5 166.5t38 220q0 105 -39 164t-108 59q-110 0 -189.5 -134.5t-79.5 -320.5z" />
<glyph unicode="A" horiz-adv-x="681" d="M12 0l205 1446h232l223 -1446h-187l-36 266h-218l-32 -266h-187zM252 442h172l-92 752z" />
<glyph unicode="B" horiz-adv-x="724" d="M86 0v1446h342q51 0 86.5 -6t60 -22.5t38.5 -36.5t22 -56t10 -72.5t2 -95.5v-180q0 -40 -1.5 -63.5t-10 -54t-25 -47.5t-47 -31t-74.5 -17q94 -7 126 -50.5t32 -148.5v-262q0 -52 -2 -86t-7.5 -69.5t-17 -56.5t-30 -40.5t-46.5 -29.5t-66 -15.5t-89 -5.5h-303zM270 178 h99q68 0 82 21t14 116v230q0 73 -18 105t-76 32h-101v-504zM270 840h84q65 0 86 29t21 124v144q0 73 -18 105t-76 32h-97v-434z" />
<glyph unicode="C" horiz-adv-x="768" d="M82 326v725q0 42 2 77t10 79t21.5 78t38 68t58 56.5t83 36.5t111.5 14q70 0 123 -18.5t86 -49t53.5 -77t28.5 -96.5t8 -113v-184h-191v223q0 28 -3.5 49t-14 46.5t-36.5 39.5t-65 14q-121 0 -121 -157v-824q0 -98 25.5 -132t91.5 -34q32 0 55 10t35.5 24.5t19.5 39 t9 45.5t2 51v281h193v-252q0 -364 -316 -364q-307 0 -307 344z" />
<glyph unicode="D" horiz-adv-x="724" d="M80 0v1446h350q127 0 174 -56t47 -178v-962q0 -139 -43 -194.5t-162 -55.5h-366zM270 178h127q34 0 48 15.5t14 64.5v911q0 56 -15.5 78.5t-62.5 22.5h-111v-1092z" />
<glyph unicode="E" horiz-adv-x="598" d="M86 0v1446h477v-180h-284v-424h253v-180h-251v-480h282v-182h-477z" />
<glyph unicode="F" horiz-adv-x="598" d="M86 0v1446h496v-178h-306v-420h277v-176h-274v-672h-193z" />
<glyph unicode="G" horiz-adv-x="724" d="M82 330v764q0 34 1.5 61t7.5 67t17.5 70.5t33 64t51.5 55t76 36t104 14.5q126 0 192 -69t66 -228v-172h-176v164q0 35 -2 54.5t-9.5 44t-26 36t-48.5 11.5q-51 0 -75 -32t-24 -122v-838q0 -93 16.5 -133.5t73.5 -40.5q34 0 56 11.5t31 33.5t11.5 40t2.5 44v328h-117v176 h305v-770h-114l-17 68q-16 -21 -26 -31t-32 -27t-52.5 -25t-69.5 -8q-63 0 -110 21t-74 54t-44 81.5t-22.5 94.5t-5.5 102z" />
<glyph unicode="H" horiz-adv-x="724" d="M80 0v1446h190v-588h176v588h191v-1446h-191v672h-176v-672h-190z" />
<glyph unicode="I" horiz-adv-x="342" d="M76 0v1446h188v-1446h-188z" />
<glyph unicode="J" horiz-adv-x="598" d="M16 8v174q85 -28 185 -28q35 0 59.5 9t37.5 22t20 38.5t8.5 47.5t1.5 59v1116h190v-1032q0 -49 -0.5 -78t-3.5 -71.5t-8.5 -67.5t-16 -58t-25.5 -52t-38 -40t-52 -32t-69 -18t-88 -7q-91 0 -201 18z" />
<glyph unicode="K" horiz-adv-x="724" d="M80 0v1446h192v-664l205 664h195l-240 -717l283 -729h-193l-252 668v-668h-190z" />
<glyph unicode="L" horiz-adv-x="598" d="M88 0v1446h191v-1268h315v-178h-506z" />
<glyph unicode="M" horiz-adv-x="1024" d="M86 0v1446h272l152 -959l141 959h281v-1446h-176q0 921 -8 1163l-158 -1163h-162l-164 1163v-1163h-178z" />
<glyph unicode="N" horiz-adv-x="768" d="M84 0v1446h205l231 -985q-10 895 -12 985h180v-1446h-211l-235 1061l20 -1061h-178z" />
<glyph unicode="O" horiz-adv-x="768" d="M80 324v757q0 35 1.5 62.5t8.5 68.5t19.5 72t35.5 65t55 56t81 36.5t110 14.5q75 0 129.5 -21.5t86 -55.5t50 -86t24 -101.5t5.5 -114.5v-753q0 -82 -17.5 -143t-46 -97.5t-70.5 -59t-85 -30.5t-96 -8q-66 0 -115.5 15.5t-91 52t-63 104.5t-21.5 166zM270 295 q0 -33 4 -57t14.5 -47.5t34 -35.5t58.5 -12q33 0 55.5 11t34.5 25.5t18.5 40.5t7.5 45t1 50v760q0 121 -21 168t-90 47q-33 0 -56.5 -12t-35 -27t-17.5 -42.5t-7 -43.5t-1 -45v-825z" />
<glyph unicode="P" horiz-adv-x="681" d="M84 0v1446h373q114 0 155 -49.5t41 -165.5v-307q0 -48 -1 -76t-5 -61t-12 -50.5t-21.5 -36t-34 -26.5t-49.5 -13.5t-69 -5.5h-191v-655h-186zM272 827h121q38 0 53 13.5t15 50.5v307q0 41 -14.5 56.5t-57.5 15.5h-117v-443z" />
<glyph unicode="Q" horiz-adv-x="768" d="M80 309v787q0 360 317 360q149 0 220 -92.5t71 -251.5v-790q0 -155 -57 -231t-174 -97v-29q0 -41 21 -60.5t71 -19.5q34 0 92 4v-176h-82q-41 0 -74.5 5t-58.5 11t-45 20.5t-33 25.5t-23 33.5t-15.5 36.5t-10 43.5t-5.5 44.5t-4 50q-1 9 -1 13q-114 28 -161.5 104.5 t-47.5 208.5zM270 295q0 -35 3 -57.5t13 -46.5t34 -36t61 -12q34 0 57.5 11t35 25t18 40.5t7.5 45t1 50.5v799q0 94 -23.5 135t-89.5 41q-65 0 -91 -37.5t-26 -113.5v-844z" />
<glyph unicode="R" horiz-adv-x="724" d="M84 0v1446h313q49 0 82 -3.5t64.5 -14t50.5 -29.5t34 -50t21 -76.5t6 -107.5v-180q0 -83 -12 -135t-41.5 -75.5t-49.5 -29.5t-65 -11q-4 -1 -6 -1q98 -4 132 -61.5t34 -196.5v-190q0 -123 6 -170.5t31 -114.5h-199q-19 102 -23.5 151.5t-4.5 151.5v131q0 33 -0.5 51 t-3 50t-8.5 51t-15.5 39.5t-26 30.5t-38.5 10h-91v-666h-190zM276 825h97q56 0 75 41t19 119v143q0 29 -0.5 42.5t-2 34t-6 30t-11.5 19.5t-19 14t-29 4h-123v-447z" />
<glyph unicode="S" horiz-adv-x="681" d="M66 289v239h176v-264q0 -72 22 -105.5t76 -33.5q32 0 52 16t28 47.5t10 55t2 61.5q0 40 -8 80.5t-16 67t-30.5 67.5t-31 55.5t-39 59.5t-35.5 53l-77 119q-35 55 -57 97.5t-41 116t-19 155.5q0 59 16.5 111t50 95t91.5 68t135 25q61 0 106 -15.5t71 -39t41 -58t20 -66 t5 -69.5v-256h-174v248q0 106 -75 106q-26 0 -45 -9.5t-28.5 -22t-14.5 -35t-6 -38.5t-1 -42q0 -69 20 -133t41.5 -101.5t65.5 -101.5l103 -152q127 -186 127 -356q0 -27 -1 -48t-6.5 -60.5t-16 -70t-32 -67t-51 -60t-76 -39.5t-104.5 -16q-134 0 -211 86q-40 47 -51.5 100 t-11.5 130z" />
<glyph unicode="T" horiz-adv-x="681" d="M23 1276v170h639v-170h-226v-1276h-194v1276h-219z" />
<glyph unicode="U" horiz-adv-x="768" d="M82 317v1129h186v-1143q0 -95 27.5 -131.5t87.5 -36.5q32 0 54 10.5t34.5 26t19 44.5t8 55.5t1.5 68.5v1106h188v-1096q0 -197 -78.5 -285t-232.5 -88q-295 0 -295 340z" />
<glyph unicode="V" horiz-adv-x="681" d="M12 1446h191l147 -1159l142 1159h188l-221 -1446h-226z" />
<glyph unicode="W" horiz-adv-x="980" d="M10 1446h189l88 -1118l106 1118h174l121 -1118l90 1118h189l-168 -1446h-219l-99 967l-90 -967h-219z" />
<glyph unicode="X" horiz-adv-x="681" d="M10 0l221 745l-219 701h191l133 -440l125 440h190l-213 -698l234 -748h-193l-143 504l-137 -504h-189z" />
<glyph unicode="Y" horiz-adv-x="681" d="M8 1446h195l133 -578l145 578h193l-240 -840v-606h-207v604z" />
<glyph unicode="Z" horiz-adv-x="598" d="M31 0v127l342 1151h-260v168h460v-125l-340 -1147h310v-174h-512z" />
<glyph unicode="[" horiz-adv-x="555" d="M121 -401v1902h348v-102h-176v-1706h172v-94h-344z" />
<glyph unicode="\" horiz-adv-x="512" d="M18 1446h160l311 -1446h-157z" />
<glyph unicode="]" horiz-adv-x="555" d="M90 -301h176v1706h-174v96h344v-1902h-346v100z" />
<glyph unicode="^" horiz-adv-x="1144" d="M125 733l362 713h170l361 -713h-187l-260 549l-256 -549h-190z" />
<glyph unicode="_" horiz-adv-x="1024" d="M-20 -293h1064v-135h-1064v135z" />
<glyph unicode="`" horiz-adv-x="425" d="M35 1430h209l147 -248h-98z" />
<glyph unicode="a" d="M70 172v184q0 90 17 131.5t83 83.5l158 99q52 32 65 63v164q0 12 -0.5 19t-4 21t-10.5 22t-21.5 15t-34.5 7q-36 0 -54 -17.5t-18 -62.5v-156h-168v136q0 51 10 90t34.5 73.5t73 53t119.5 18.5q238 0 238 -225v-725q0 -105 31 -166h-176q-21 55 -29 88q-34 -52 -69 -76 t-91 -24q-81 0 -117 45.5t-36 138.5zM233 242q0 -63 14 -93t52 -30q94 0 94 168v256l-102 -72q-58 -40 -58 -111v-118z" />
<glyph unicode="b" d="M80 0v1446h164v-426q56 92 157 92q31 0 58 -8.5t52.5 -28t40.5 -58t15 -91.5v-697q0 -129 -56 -188t-144 -59q-118 0 -158 110q-26 -37 -37 -92h-92zM244 244q0 -61 15.5 -87t62.5 -26q36 0 57.5 24.5t21.5 69.5v652q0 42 -14.5 66t-56.5 24q-44 0 -65 -31t-21 -76v-616z " />
<glyph unicode="c" horiz-adv-x="624" d="M74 215v651q0 130 67.5 190t180.5 60q127 0 186 -65.5t59 -196.5v-152h-166v187q0 42 -17 65t-65 23q-53 0 -68 -27.5t-15 -81.5v-665q0 -86 79 -86q51 0 68.5 27t17.5 87v205h164v-200q0 -256 -250 -256q-132 0 -186.5 59.5t-54.5 175.5z" />
<glyph unicode="d" d="M82 180v746q0 30 7 59t24 59.5t52 49t83 18.5q47 0 80 -20.5t71 -61.5v416h166v-1446h-166v76q-56 -92 -151 -92q-166 0 -166 196zM244 229q0 -56 16.5 -77t56.5 -21q41 0 61.5 31t20.5 80v630q0 91 -75 91q-47 0 -63.5 -29t-16.5 -78v-627z" />
<glyph unicode="e" d="M80 207v653q0 115 61.5 184.5t184.5 69.5q115 0 178 -61t63 -187v-354h-325v-309q0 -17 2 -28.5t8.5 -27t23 -24t41.5 -8.5q84 0 84 100v193h166v-152q0 -137 -60.5 -205.5t-189.5 -68.5q-237 0 -237 225zM242 647h159v232q0 24 -2 39t-9 30.5t-23 23t-41 7.5 q-23 0 -39.5 -7.5t-25 -17.5t-13 -28t-5.5 -31.5t-1 -34.5v-213z" />
<glyph unicode="f" horiz-adv-x="382" d="M18 958v140h93v198q0 51 12 83.5t36.5 46t46.5 17t58 3.5q52 0 105 -6v-140h-29q-32 0 -46.5 -12t-14.5 -51v-139h94v-140h-97v-958h-167v958h-91z" />
<glyph unicode="g" d="M74 176v737q0 26 3.5 50.5t14.5 53.5t29 50t49 35t72 14q103 0 157 -96v78h162v-1147q0 -122 -69.5 -183t-178.5 -61q-22 0 -45.5 3t-60 15.5t-64 33.5t-47.5 62.5t-20 96.5v12h164q0 -42 17.5 -64t61.5 -22q78 0 78 88v144q-61 -88 -155 -88q-168 0 -168 188zM236 254 q0 -24 0.5 -35t4.5 -30t11.5 -28t23 -16.5t37.5 -7.5q27 0 45 10.5t26 30.5t10.5 38.5t2.5 43.5v567q0 28 -2 46.5t-9 43t-25.5 37.5t-47.5 13q-22 0 -37 -8t-23 -19t-12 -32.5t-4.5 -37t-0.5 -43.5v-573z" />
<glyph unicode="h" d="M82 0v1446h162v-422q62 90 157 90q46 0 79 -16.5t49.5 -39.5t26 -58.5t11.5 -61t2 -59.5v-879h-166v864q0 20 -1.5 32.5t-8 30t-23 27t-42.5 9.5q-84 0 -84 -113v-850h-162z" />
<glyph unicode="i" horiz-adv-x="342" d="M88 0v1098h164v-1098h-164zM90 1223v217h164v-217h-164z" />
<glyph unicode="j" horiz-adv-x="342" d="M-37 -141q36 -4 57 -4q25 0 41 7t22.5 20t8.5 23.5t2 24.5v1168h166v-1118q0 -69 -8.5 -113.5t-32.5 -82t-72 -54.5t-122 -17q-42 0 -62 2v144zM94 1221v219h166v-219h-166z" />
<glyph unicode="k" horiz-adv-x="598" d="M84 0v1446h166v-787l164 439h178l-191 -420l185 -678h-174l-129 504l-33 -86v-418h-166z" />
<glyph unicode="l" horiz-adv-x="342" d="M86 0v1446h168v-1446h-168z" />
<glyph unicode="m" horiz-adv-x="980" d="M86 0v1098h162v-76q32 48 66.5 71t88.5 23q115 0 156 -108q14 23 22 33.5t29.5 31.5t52 31t70.5 10q71 0 118.5 -47t47.5 -147v-920h-168v877q0 44 -15 66t-54 22q-54 0 -71.5 -28.5t-17.5 -80.5v-856h-163v860q0 32 -4 52.5t-21.5 37.5t-50.5 17q-84 0 -84 -115v-852 h-164z" />
<glyph unicode="n" d="M80 0v1098h164v-72q65 90 159 90q166 0 166 -209v-907h-168v860q0 51 -14 79t-57 28q-51 0 -68.5 -34.5t-17.5 -90.5v-842h-164z" />
<glyph unicode="o" d="M78 295v547q0 53 11 97t36.5 85.5t77.5 65.5t125 24q124 0 182.5 -58.5t58.5 -191.5v-622q0 -55 -10.5 -97.5t-36 -81.5t-76 -60t-124.5 -21q-65 0 -111 17t-71.5 43t-39.5 70t-18 84t-4 99zM242 213q0 -52 16.5 -74t60.5 -22q54 0 71.5 28t17.5 82v647q0 33 -4 53 t-22.5 36t-53.5 16q-49 0 -67.5 -28t-18.5 -91v-647z" />
<glyph unicode="p" d="M76 -297v1395h166v-76q59 92 159 92q40 0 70.5 -13.5t47.5 -33.5t27.5 -47.5t13.5 -51.5t3 -50v-707q0 -41 -7 -76.5t-24.5 -70.5t-52.5 -55.5t-84 -20.5q-97 0 -153 92v-377h-166zM242 233q0 -98 80 -98q77 0 77 105v620q0 24 -2 40t-9 33.5t-22.5 26.5t-39.5 9 t-41 -9.5t-25 -21.5t-12.5 -33.5t-5 -34t-0.5 -34.5v-603z" />
<glyph unicode="q" d="M74 170v707q0 36 1.5 60.5t10.5 61.5t25.5 59.5t50 40t80.5 17.5q105 0 168 -108q35 50 45 90h104v-1395h-166v377q-67 -90 -164 -90q-155 0 -155 180zM236 229q0 -17 0.5 -25.5t4 -24t10 -23.5t20.5 -14.5t34 -6.5q24 0 41.5 9.5t26.5 22.5t14.5 34.5t6.5 38t1 39.5v544 q0 28 -1 44t-5 37.5t-12.5 32.5t-24.5 19.5t-39 8.5q-22 0 -37 -7t-23 -16t-12 -24t-4.5 -24t-0.5 -24v-641z" />
<glyph unicode="r" horiz-adv-x="468" d="M63 0v1098h168v-127q31 68 67.5 103.5t100.5 35.5q17 0 45 -4v-191q-44 33 -98 33q-39 0 -64.5 -19t-36.5 -53.5t-14.5 -66t-3.5 -74.5v-735h-164z" />
<glyph unicode="s" horiz-adv-x="598" d="M49 299v104h156v-129q0 -80 18.5 -114.5t77.5 -34.5q48 0 67 34.5t19 108.5q0 59 -21.5 100.5t-68.5 88.5l-88 88q-80 80 -111.5 144.5t-31.5 154.5q0 123 58.5 195.5t184.5 72.5q142 0 195 -100q22 -41 28.5 -91.5t6.5 -152.5h-152q0 34 -0.5 55t-3.5 46t-8.5 39.5 t-15 27.5t-24 19t-34.5 6q-48 0 -65 -27.5t-17 -75.5q0 -58 20 -93.5t68 -82.5l76 -74q100 -97 133 -167.5t33 -172.5q0 -30 -5 -63t-21.5 -75.5t-42.5 -75t-74 -55t-111 -22.5q-93 0 -158 50q-31 23 -50 54.5t-26.5 72t-9.5 69.5t-2 76z" />
<glyph unicode="t" horiz-adv-x="382" d="M14 958v140h103v235h164v-235h92v-140h-94v-765q0 -40 18 -55t53 -15h35q-2 -111 -2 -125q-57 -10 -94 -10q-104 0 -140 37.5t-36 134.5v798h-99z" />
<glyph unicode="u" d="M74 197v901h170v-897q0 -32 19 -51t56 -19q27 0 44.5 11.5t25 32.5t10 39.5t2.5 43.5v840h164v-1098h-164v70q-65 -90 -161 -90q-166 0 -166 217z" />
<glyph unicode="v" horiz-adv-x="555" d="M14 1098h168l97 -856l96 856h168l-170 -1098h-197z" />
<glyph unicode="w" horiz-adv-x="811" d="M16 1098h158l59 -824l109 824h119l100 -824l66 824h161l-137 -1098h-182l-70 635l-71 -635h-183z" />
<glyph unicode="x" horiz-adv-x="598" d="M8 0l199 590l-170 508h164l100 -389l96 389h164l-170 -504l189 -594h-172l-109 436l-131 -436h-160z" />
<glyph unicode="y" horiz-adv-x="555" d="M8 1098h168l96 -871l101 871h170l-207 -1215l-6 -33t-9 -33t-15 -34t-23.5 -29t-35.5 -25.5t-50.5 -15t-67.5 -6.5q-26 0 -84 4v158q22 0 34.5 0.5t33.5 5.5t32.5 15t21 29.5t9.5 47.5q0 30 -4 53z" />
<glyph unicode="z" horiz-adv-x="555" d="M23 0v156l333 788h-264v154h443v-158l-334 -784h325v-156h-503z" />
<glyph unicode="{" horiz-adv-x="724" d="M145 473v113q36 8 61 20.5t41 34.5t25.5 43t14 61t5.5 72.5t1 91.5v211q0 70 7.5 121.5t29.5 101t60 80.5t101.5 49.5t151.5 18.5v-109q-115 -11 -149.5 -71t-34.5 -215v-166q0 -85 -4 -141t-14.5 -102t-30 -74t-48 -47t-71.5 -31v-9q103 -27 135.5 -110.5t32.5 -284.5 v-160q0 -36 0.5 -56.5t2.5 -52t7 -50t13 -42.5t21.5 -37.5t31.5 -27t44 -20t58 -7.5v-108q-87 0 -149 18.5t-99.5 50t-59 82.5t-29 104.5t-7.5 127.5v199q0 81 -6 135t-15.5 86.5t-30 52.5t-40.5 29t-56 18z" />
<glyph unicode="|" horiz-adv-x="468" d="M152 -430v1931h165v-1931h-165z" />
<glyph unicode="}" horiz-adv-x="724" d="M82 -322q60 6 96 23t56 54t26 84t6 126v166q0 85 4 141t14.5 102t30 74t48 47t71.5 31v9q-103 27 -135.5 110.5t-32.5 284.5v160q0 32 -0.5 50t-2 47t-4.5 45.5t-9 39.5t-15 36.5t-22.5 28.5t-31 23.5t-41 14.5t-52.5 7v109q87 0 149 -18.5t99.5 -50t59 -82.5t29 -104.5 t7.5 -127.5v-199q0 -81 6 -135t15.5 -86.5t30 -52.5t40.5 -29t56 -18v-113q-36 -8 -61 -20.5t-41 -34.5t-25.5 -43t-14 -61t-5.5 -72.5t-1 -91.5v-211q0 -70 -7.5 -121.5t-29.5 -101t-60 -80.5t-101.5 -49.5t-151.5 -18.5v108z" />
<glyph unicode="~" horiz-adv-x="1157" d="M129 614q76 86 125 116t125 30q67 0 160 -41l110 -47q54 -23 76.5 -30t46.5 -7q43 0 83.5 24t92.5 82l78 -127q-66 -78 -127 -111.5t-129 -33.5t-184 53l-54 25q-95 45 -155 45q-43 0 -77 -20t-77 -70l-14 -17z" />
<glyph unicode="&#xa1;" horiz-adv-x="382" d="M80 0v557l37 422h90l37 -471v-508h-164zM80 1167v265h164v-265h-164z" />
<glyph unicode="&#xa2;" d="M82 209v668q0 207 201 237v117h77v-115q59 -7 101.5 -29t64 -46.5t33.5 -59.5t14 -57.5t2 -51.5v-170h-165v187q0 44 -19 66t-63 22q-53 0 -68.5 -28t-15.5 -81v-665q0 -86 82 -86q28 0 46.5 9.5t26 28.5t9.5 35t2 41v205h163v-207q0 -16 -0.5 -29.5t-5 -39.5t-12.5 -46 t-23.5 -44.5t-37.5 -41.5t-56.5 -30t-77.5 -16v-132h-77v132q-47 6 -83 19.5t-57 34.5t-34.5 41t-18.5 47.5t-6.5 44t-1.5 40.5z" />
<glyph unicode="&#xa3;" horiz-adv-x="980" d="M39 135q0 71 56.5 117.5t154.5 46.5q18 0 37 -2t36.5 -5.5t30 -6.5t25.5 -7t14 -4q15 59 15 101q0 22 -3.5 45.5t-6.5 39.5t-12 44t-12.5 38t-16.5 43.5t-15 39.5h-215v137h164q-78 195 -78 352q0 50 9 96.5t32.5 93t59 81t92.5 56t129 21.5q79 0 145 -30t102 -93 q30 -50 39.5 -112.5t9.5 -151.5v-74h-176v86q0 41 -1.5 67.5t-8 57.5t-19 49t-35 30t-54.5 12q-131 0 -131 -179q0 -93 20.5 -168.5t67.5 -191.5h215v-137h-160q20 -96 20 -166q0 -36 -3.5 -67.5t-11 -59.5t-12 -43t-15.5 -42t-13 -32q5 -2 33.5 -18.5t46 -25.5t42 -18.5 t40.5 -9.5q49 0 62.5 41.5t13.5 159.5v64h168v-80q0 -97 -6 -148.5t-27 -87.5q-20 -37 -63.5 -65.5t-114.5 -28.5q-49 0 -99.5 19.5t-82 41t-72.5 56.5q-18 -22 -31.5 -36t-45.5 -39.5t-74.5 -39.5t-90.5 -14q-72 0 -123 37.5t-51 109.5zM141 133q0 -16 16.5 -32.5 t47.5 -16.5q41 0 86.5 31.5t50.5 52.5q-62 25 -113 25q-43 0 -65.5 -17.5t-22.5 -42.5z" />
<glyph unicode="&#xa4;" horiz-adv-x="1284" d="M84 223l147 152q-57 90 -78.5 160t-21.5 161q0 92 22 162.5t78 155.5l-143 151l107 113l143 -150q79 57 149.5 81t155.5 24q162 0 301 -105l148 152l108 -115l-145 -153q54 -88 76 -158.5t22 -155.5q0 -174 -100 -323l145 -156l-108 -113l-148 156q-78 -57 -148.5 -81.5 t-156.5 -24.5q-85 0 -148.5 22.5t-150.5 83.5l-148 -151zM311 696q0 -158 96.5 -264t239.5 -106q137 0 230.5 105.5t93.5 260.5q0 160 -93.5 266.5t-234.5 106.5t-236.5 -106t-95.5 -263z" />
<glyph unicode="&#xa5;" horiz-adv-x="681" d="M8 1446h195l133 -588l145 588h193l-178 -621h143v-129h-178l-27 -94v-16h205v-131h-205v-455h-207v455h-198v131h198v16l-24 94h-174v129h139z" />
<glyph unicode="&#xa6;" horiz-adv-x="468" d="M152 406h165v-836h-165v836zM152 666v835h165v-835h-165z" />
<glyph unicode="&#xa7;" horiz-adv-x="811" d="M66 207h174v-60q0 -78 36.5 -122.5t110.5 -44.5q64 0 106 38t42 101q0 47 -21 84t-57.5 62.5t-74 44.5t-84 41.5t-73.5 41.5q-155 110 -155 277q0 89 38 150.5t117 119.5q-69 66 -101 124t-32 142q0 131 91 214t223 83q140 0 218 -79.5t78 -221.5v-67h-157v73 q0 71 -33.5 115.5t-101.5 44.5q-60 0 -99 -35t-39 -94q0 -54 27 -97t70 -72t95 -55.5t104 -56.5t95 -65.5t70 -92t27 -128.5q0 -87 -39 -154t-113 -141q57 -57 83 -108t26 -124q0 -141 -97 -224t-239 -83q-103 0 -182 44.5t-113 135.5q-20 55 -20 189zM246 686 q0 -25 6.5 -47.5t22 -41.5t29.5 -33t39 -30t40 -24.5t44.5 -23.5t39.5 -21q119 77 119 176q0 25 -8 48t-17.5 40t-30 35t-34.5 28.5t-42 25.5t-40.5 20.5t-42.5 19.5q-56 -35 -90.5 -75.5t-34.5 -96.5z" />
<glyph unicode="&#xa8;" horiz-adv-x="425" d="M2 1206v205h150v-205h-150zM266 1206v205h158v-205h-158z" />
<glyph unicode="&#xa9;" horiz-adv-x="1705" d="M125 723q0 200 96.5 367.5t264 264.5t368.5 97t368.5 -96.5t264 -263.5t96.5 -367q0 -152 -56.5 -287.5t-154 -233t-233 -154t-287.5 -56.5q-198 0 -365.5 97t-264.5 264.5t-97 367.5zM207 721q0 -133 51 -254t137 -208t205.5 -138t251.5 -51q133 0 253 51t207 138 t138 208t51 254q0 136 -50.5 257.5t-137 208.5t-206 138t-253.5 51q-132 0 -252 -52t-206.5 -139.5t-137.5 -209t-51 -254.5zM639 459v536q0 107 59.5 168.5t163.5 61.5q217 0 217 -248v-117h-147v150q0 46 -18 67t-56 21q-43 0 -59.5 -24t-16.5 -85v-553q0 -86 74 -86 q43 0 59.5 24.5t16.5 90.5v129h145v-129q0 -117 -57 -179.5t-164 -62.5q-111 0 -164 57.5t-53 178.5z" />
<glyph unicode="&#xaa;" horiz-adv-x="382" d="M55 950v97q0 52 11 76t49 48q9 5 21.5 13t19 12.5t16 10.5t14.5 9.5t12 8t10.5 8l7 7t6 7t3.5 6.5v86q0 13 -0.5 18t-7 11t-20.5 6q-20 0 -26.5 -8t-6.5 -29v-86h-101v80q0 40 13 67t34.5 39t40 16.5t37.5 4.5q39 0 67 -11t41 -25t20.5 -36.5t8.5 -35.5t1 -33v-371 q0 -51 14 -88h-100l-15 37q-38 -43 -80 -43q-90 0 -90 98zM154 981q0 -16 0.5 -23.5t7.5 -15.5t20 -8q43 0 43 80v123l-41 -29q-21 -14 -25.5 -26.5t-4.5 -49.5v-51z" />
<glyph unicode="&#xab;" horiz-adv-x="681" d="M53 487v215l271 244v-205l-162 -147l164 -145v-205zM358 487v222l269 237v-205l-160 -145l162 -145v-201z" />
<glyph unicode="&#xac;" horiz-adv-x="1144" d="M123 530v154h850v-532h-187v378h-663z" />
<glyph unicode="&#xad;" horiz-adv-x="468" d="M53 510v172h363v-172h-363z" />
<glyph unicode="&#xae;" horiz-adv-x="1705" d="M125 723q0 200 96.5 367.5t264 264.5t368.5 97t368.5 -96.5t264 -263.5t96.5 -367q0 -152 -56.5 -287.5t-154 -233t-233 -154t-287.5 -56.5q-198 0 -365.5 97t-264.5 264.5t-97 367.5zM207 721q0 -133 51 -254t137 -208t205.5 -138t251.5 -51q133 0 253 51t207 138 t138 208t51 254q0 136 -50.5 257.5t-137 208.5t-206 138t-253.5 51q-132 0 -252 -52t-206.5 -139.5t-137.5 -209t-51 -254.5zM639 246v962h205q129 0 172 -39t43 -157v-115q0 -79 -27 -114.5t-96 -47.5q55 -13 76.5 -27t32 -51.5t10.5 -119.5v-103q0 -74 4.5 -108t21.5 -80 h-147q-15 55 -18 79.5t-3 98.5v127q0 69 -22.5 91t-81.5 22h-31v-418h-139zM780 801h27q71 0 92 20.5t21 89.5v76q0 54 -21.5 70t-89.5 16h-29v-272z" />
<glyph unicode="&#xaf;" horiz-adv-x="428" d="M4 1212v129h420v-129h-420z" />
<glyph unicode="&#xb0;" horiz-adv-x="724" d="M33 1217q0 137 96.5 233t232.5 96q139 0 234.5 -95.5t95.5 -233.5q0 -137 -96.5 -234.5t-233.5 -97.5t-233 97.5t-96 234.5zM201 1221q0 -66 47.5 -114t113.5 -48q68 0 115 47.5t47 114.5t-47 114t-115 47t-114.5 -47t-46.5 -114z" />
<glyph unicode="&#xb1;" horiz-adv-x="1144" d="M172 0v156h803v-156h-803zM172 610v154h317v344h173v-344h313v-154h-313v-344h-173v344h-317z" />
<glyph unicode="&#xb2;" horiz-adv-x="468" d="M49 543q0 76 7.5 128t33 106.5t50.5 93t83 118.5q49 69 61.5 101.5t12.5 107.5q0 101 -12.5 130.5t-55.5 29.5q-29 0 -43.5 -14.5t-17 -30.5t-2.5 -45v-127h-117v114q0 33 2.5 56t12.5 52t28.5 47.5t52.5 31t82 12.5q109 0 150 -47q25 -28 32 -70t7 -143 q0 -67 -15.5 -119.5t-35.5 -85t-76 -112.5q-98 -140 -109 -228h240v-106h-371z" />
<glyph unicode="&#xb3;" horiz-adv-x="468" d="M47 700v117h117v-115q0 -36 14.5 -54.5t52.5 -18.5q37 0 51.5 20t14.5 66v155q0 70 -27.5 89.5t-97.5 19.5h-37v113h31q72 0 93.5 25.5t21.5 76.5v111q0 29 -12.5 44t-43.5 15q-59 0 -59 -70v-75h-117v65q0 25 2 44.5t12 45t27.5 42t51 28.5t79.5 12q176 0 176 -143v-117 q0 -66 -21.5 -100t-68.5 -45q65 -20 86 -57t21 -103v-186q0 -34 -5 -59t-22 -55t-57.5 -46.5t-102.5 -16.5q-57 0 -95 15.5t-55.5 43t-23.5 53.5t-6 60z" />
<glyph unicode="&#xb4;" horiz-adv-x="425" d="M37 1182l147 248h205l-256 -248h-96z" />
<glyph unicode="&#xb5;" d="M70 -297v1395h170v-860q0 -60 16 -83.5t57 -23.5q44 0 64 29.5t20 95.5v842h164v-942q0 -97 29 -156h-158q-18 38 -26 80q-12 -49 -35 -69.5t-62 -20.5q-37 0 -69 26v-313h-170z" />
<glyph unicode="&#xb6;" horiz-adv-x="1228" d="M176 1036q0 195 121 307q63 59 141 81t224 22h301v-129h-70v-1659h-119v1659h-188v-1659h-119v995q-291 74 -291 383z" />
<glyph unicode="&#xb7;" horiz-adv-x="299" d="M61 457v270h168v-270h-168z" />
<glyph unicode="&#xb8;" horiz-adv-x="425" d="M33 -287h39q153 0 153 66q0 12 -4.5 21.5t-16.5 15.5t-22 10t-32.5 7t-34.5 4t-41 3l147 248h96l-90 -164q166 -8 166 -114q0 -46 -28 -79t-75 -49.5t-97 -24t-107 -7.5h-53v63z" />
<glyph unicode="&#xb9;" horiz-adv-x="468" d="M98 1219v94q23 4 40.5 10t38 19.5t37 40t26.5 65.5h79v-905h-120v676h-101z" />
<glyph unicode="&#xba;" horiz-adv-x="382" d="M57 1018v293q0 149 136 149q47 0 77 -14t42 -39.5t15 -43.5t3 -44v-318q0 -20 -1 -33t-8 -37.5t-19.5 -39.5t-39.5 -27t-65 -12q-82 0 -111 45t-29 121zM156 993q0 -55 37 -55q17 0 25.5 10.5t9.5 20t1 28.5v320q0 13 -0.5 19.5t-3 17t-10.5 15.5t-20 5q-14 0 -22.5 -5 t-12 -15t-4 -17t-0.5 -20v-324z" />
<glyph unicode="&#xbb;" horiz-adv-x="681" d="M55 739v201l273 -238v-221l-271 -237v205l162 145zM358 741v205l273 -241v-218l-269 -243v205l160 147z" />
<glyph unicode="&#xbc;" horiz-adv-x="1193" d="M98 1219v94q23 4 40.5 10t38 19.5t37 40t26.5 65.5h79v-905h-120v676h-101zM233 -10l633 1507l101 -41l-633 -1509zM745 205v102l195 594h170v-594h64v-102h-64v-205h-109v205h-256zM854 307h147v496z" />
<glyph unicode="&#xbd;" horiz-adv-x="1193" d="M98 1219v94q23 4 40.5 10t38 19.5t37 40t26.5 65.5h79v-905h-120v676h-101zM205 -10l631 1507l100 -41l-633 -1509zM774 0q0 76 7.5 128t33 106.5t50.5 93t83 118.5q49 69 61.5 101.5t12.5 107.5q0 101 -12.5 130.5t-55.5 29.5q-29 0 -43.5 -14.5t-17 -30.5t-2.5 -45 v-127h-117v115q0 32 2.5 55.5t12.5 52.5t28.5 47t52.5 30.5t82 12.5q109 0 150 -47q25 -28 32 -70t7 -143q0 -67 -15.5 -119.5t-35.5 -85t-76 -112.5q-98 -140 -109 -228h240v-106h-371z" />
<glyph unicode="&#xbe;" horiz-adv-x="1193" d="M47 698v117h117v-115q0 -36 14.5 -54.5t52.5 -18.5q37 0 51.5 20t14.5 66v155q0 70 -27.5 89.5t-97.5 19.5h-37v113h31q72 0 93.5 25.5t21.5 76.5v111q0 29 -12.5 44t-43.5 15q-59 0 -59 -70v-75h-117v65q0 25 2 44.5t12 45t27.5 42t51 28.5t79.5 12q176 0 176 -143v-117 q0 -66 -21.5 -100t-68.5 -45q65 -20 86 -57t21 -103v-187q0 -27 -2.5 -46.5t-13 -46t-29.5 -43t-55.5 -28.5t-86.5 -12q-57 0 -95 15.5t-55.5 43t-23.5 53.5t-6 60zM276 -10l633 1507l101 -41l-633 -1509zM745 205v102l195 594h170v-594h64v-102h-64v-205h-109v205h-256z M854 307h147v496z" />
<glyph unicode="&#xbf;" horiz-adv-x="681" d="M47 285q0 139 88 311q20 40 53 101.5t42.5 82t23.5 58t17.5 67.5t4.5 74h146q0 -38 -1 -67t-8 -60.5t-10 -47.5t-18.5 -52.5t-21.5 -50t-31.5 -66t-36.5 -76.5q-74 -156 -74 -291q0 -127 96 -127q28 0 47.5 10.5t29.5 25.5t16 38.5t7 41t1 42.5v102h157v-131 q0 -144 -69 -211t-189 -67q-122 0 -196 75t-74 218zM264 1167v265h164v-265h-164z" />
<glyph unicode="&#xc0;" horiz-adv-x="681" d="M12 0l205 1446h232l223 -1446h-187l-36 266h-218l-32 -266h-187zM45 1833h209l149 -248h-100zM252 442h172l-92 752z" />
<glyph unicode="&#xc1;" horiz-adv-x="681" d="M12 0l205 1446h232l223 -1446h-187l-36 266h-218l-32 -266h-187zM252 442h172l-92 752zM262 1587l146 250h208l-258 -250h-96z" />
<glyph unicode="&#xc2;" horiz-adv-x="681" d="M12 0l205 1446h232l223 -1446h-187l-36 266h-218l-32 -266h-187zM100 1585l185 248h114l185 -246h-117l-125 125l-131 -127h-111zM252 442h172l-92 752z" />
<glyph unicode="&#xc3;" horiz-adv-x="681" d="M12 0l205 1446h232l223 -1446h-187l-36 266h-218l-32 -266h-187zM106 1626q0 82 40 133t98 51q46 0 118.5 -30.5t98.5 -30.5q20 0 31 10.5t13 20t3 28.5h70q0 -30 -7 -59.5t-22 -58t-43 -46.5t-66 -18t-113 31t-102 31q-45 0 -49 -62h-70zM252 442h172l-92 752z" />
<glyph unicode="&#xc4;" horiz-adv-x="681" d="M12 0l205 1446h232l223 -1446h-187l-36 266h-218l-32 -266h-187zM131 1591v205h148v-205h-148zM252 442h172l-92 752zM395 1591v207h154v-207h-154z" />
<glyph unicode="&#xc5;" horiz-adv-x="681" d="M12 0l205 1446h232l223 -1446h-187l-36 266h-218l-32 -266h-187zM188 1712q0 64 45.5 109t108.5 45q64 0 109 -46t45 -108q0 -64 -46 -108.5t-108 -44.5q-65 0 -109.5 44.5t-44.5 108.5zM252 442h172l-92 752zM258 1712q0 -36 24 -60t60 -24t60 24t24 60t-25 60t-59 24 q-36 0 -60 -25t-24 -59z" />
<glyph unicode="&#xc6;" horiz-adv-x="980" d="M-20 0l301 1446h637v-178h-291v-441h252v-159h-252v-488h319v-180h-504v666h-147l-127 -666h-188zM326 825h116v502h-24z" />
<glyph unicode="&#xc7;" horiz-adv-x="768" d="M82 326v725q0 42 2 77t10 79t21.5 78t38 68t58 56.5t83 36.5t111.5 14q70 0 123 -18.5t86 -49t53.5 -77t28.5 -96.5t8 -113v-184h-191v223q0 28 -3.5 49t-14 46.5t-36.5 39.5t-65 14q-121 0 -121 -157v-824q0 -98 25.5 -132t91.5 -34q32 0 55 10t35.5 24.5t19.5 39 t9 45.5t2 51v281h193v-252q0 -326 -263 -362l-32 -60q165 -8 165 -114q0 -46 -28 -79t-75 -49.5t-97 -24t-107 -7.5h-53v63h39q154 0 154 66q0 18 -10 30t-32 17.5t-35.5 7.5t-41.5 4l-33 2l86 144q-260 29 -260 342z" />
<glyph unicode="&#xc8;" horiz-adv-x="598" d="M12 1833h209l150 -248h-101zM86 0v1446h477v-180h-284v-424h253v-180h-251v-480h282v-182h-477z" />
<glyph unicode="&#xc9;" horiz-adv-x="598" d="M86 0v1446h477v-180h-284v-424h253v-180h-251v-480h282v-182h-477zM242 1587l145 250h209l-258 -250h-96z" />
<glyph unicode="&#xca;" horiz-adv-x="598" d="M78 1585l184 248h115l184 -246h-117l-125 125l-131 -127h-110zM86 0v1446h477v-180h-284v-424h253v-180h-251v-480h282v-182h-477z" />
<glyph unicode="&#xcb;" horiz-adv-x="598" d="M86 0v1446h477v-180h-284v-424h253v-180h-251v-480h282v-182h-477zM100 1591v205h148v-205h-148zM365 1591v207h153v-207h-153z" />
<glyph unicode="&#xcc;" horiz-adv-x="342" d="M-115 1833h209l150 -248h-101zM76 0v1446h188v-1446h-188z" />
<glyph unicode="&#xcd;" horiz-adv-x="342" d="M76 0v1446h188v-1446h-188zM92 1587l146 250h208l-258 -250h-96z" />
<glyph unicode="&#xce;" horiz-adv-x="342" d="M-72 1585l185 248h114l185 -246h-117l-125 125l-131 -127h-111zM76 0v1446h188v-1446h-188z" />
<glyph unicode="&#xcf;" horiz-adv-x="342" d="M-39 1591v205h148v-205h-148zM76 0v1446h188v-1446h-188zM225 1591v207h154v-207h-154z" />
<glyph unicode="&#xd0;" horiz-adv-x="724" d="M0 723v139h80v584h350q59 0 101 -13.5t65 -34t35.5 -53.5t16 -62t3.5 -71v-962q0 -78 -12 -128t-39.5 -76.5t-63 -36t-90.5 -9.5h-366v723h-80zM270 178h123q38 0 52 16t14 64v918q0 60 -19 77t-63 17h-107v-408h107v-139h-107v-545z" />
<glyph unicode="&#xd1;" horiz-adv-x="768" d="M84 0v1446h205l231 -985q-10 895 -12 985h180v-1446h-211l-235 1061l20 -1061h-178zM160 1626q0 82 39.5 133t97.5 51q46 0 118.5 -30.5t98.5 -30.5q20 0 31 10.5t13 20t3 28.5h70q0 -30 -7 -59.5t-21.5 -58t-42.5 -46.5t-66 -18t-113 31t-102 31q-46 0 -50 -62h-69z" />
<glyph unicode="&#xd2;" horiz-adv-x="768" d="M80 324v757q0 35 1.5 62.5t8.5 68.5t19.5 72t35.5 65t55 56t81 36.5t110 14.5q75 0 129.5 -21.5t86 -55.5t50 -86t24 -101.5t5.5 -114.5v-753q0 -82 -17.5 -143t-46 -97.5t-70.5 -59t-85 -30.5t-96 -8q-66 0 -115.5 15.5t-91 52t-63 104.5t-21.5 166zM98 1833h209 l150 -248h-101zM270 295q0 -33 4 -57t14.5 -47.5t34 -35.5t58.5 -12q33 0 55.5 11t34.5 25.5t18.5 40.5t7.5 45t1 50v760q0 121 -21 168t-90 47q-33 0 -56.5 -12t-35 -27t-17.5 -42.5t-7 -43.5t-1 -45v-825z" />
<glyph unicode="&#xd3;" horiz-adv-x="768" d="M80 324v757q0 35 1.5 62.5t8.5 68.5t19.5 72t35.5 65t55 56t81 36.5t110 14.5q75 0 129.5 -21.5t86 -55.5t50 -86t24 -101.5t5.5 -114.5v-753q0 -82 -17.5 -143t-46 -97.5t-70.5 -59t-85 -30.5t-96 -8q-66 0 -115.5 15.5t-91 52t-63 104.5t-21.5 166zM270 295 q0 -33 4 -57t14.5 -47.5t34 -35.5t58.5 -12q33 0 55.5 11t34.5 25.5t18.5 40.5t7.5 45t1 50v760q0 121 -21 168t-90 47q-33 0 -56.5 -12t-35 -27t-17.5 -42.5t-7 -43.5t-1 -45v-825zM305 1587l146 250h208l-258 -250h-96z" />
<glyph unicode="&#xd4;" horiz-adv-x="768" d="M80 324v757q0 35 1.5 62.5t8.5 68.5t19.5 72t35.5 65t55 56t81 36.5t110 14.5q75 0 129.5 -21.5t86 -55.5t50 -86t24 -101.5t5.5 -114.5v-753q0 -82 -17.5 -143t-46 -97.5t-70.5 -59t-85 -30.5t-96 -8q-66 0 -115.5 15.5t-91 52t-63 104.5t-21.5 166zM141 1585l185 248 h114l185 -246h-117l-125 125l-131 -127h-111zM270 295q0 -33 4 -57t14.5 -47.5t34 -35.5t58.5 -12q33 0 55.5 11t34.5 25.5t18.5 40.5t7.5 45t1 50v760q0 121 -21 168t-90 47q-33 0 -56.5 -12t-35 -27t-17.5 -42.5t-7 -43.5t-1 -45v-825z" />
<glyph unicode="&#xd5;" horiz-adv-x="768" d="M80 324v757q0 35 1.5 62.5t8.5 68.5t19.5 72t35.5 65t55 56t81 36.5t110 14.5q75 0 129.5 -21.5t86 -55.5t50 -86t24 -101.5t5.5 -114.5v-753q0 -82 -17.5 -143t-46 -97.5t-70.5 -59t-85 -30.5t-96 -8q-66 0 -115.5 15.5t-91 52t-63 104.5t-21.5 166zM160 1626 q0 82 39.5 133t97.5 51q46 0 118.5 -30.5t98.5 -30.5q20 0 31 10.5t13 20t3 28.5h70q0 -30 -7 -59.5t-21.5 -58t-42.5 -46.5t-66 -18t-113 31t-102 31q-46 0 -50 -62h-69zM270 295q0 -33 4 -57t14.5 -47.5t34 -35.5t58.5 -12q33 0 55.5 11t34.5 25.5t18.5 40.5t7.5 45t1 50 v760q0 121 -21 168t-90 47q-33 0 -56.5 -12t-35 -27t-17.5 -42.5t-7 -43.5t-1 -45v-825z" />
<glyph unicode="&#xd6;" horiz-adv-x="768" d="M80 324v757q0 35 1.5 62.5t8.5 68.5t19.5 72t35.5 65t55 56t81 36.5t110 14.5q75 0 129.5 -21.5t86 -55.5t50 -86t24 -101.5t5.5 -114.5v-753q0 -82 -17.5 -143t-46 -97.5t-70.5 -59t-85 -30.5t-96 -8q-66 0 -115.5 15.5t-91 52t-63 104.5t-21.5 166zM174 1591v205h148 v-205h-148zM270 295q0 -33 4 -57t14.5 -47.5t34 -35.5t58.5 -12q33 0 55.5 11t34.5 25.5t18.5 40.5t7.5 45t1 50v760q0 121 -21 168t-90 47q-33 0 -56.5 -12t-35 -27t-17.5 -42.5t-7 -43.5t-1 -45v-825zM438 1591v207h154v-207h-154z" />
<glyph unicode="&#xd7;" horiz-adv-x="1142" d="M225 840l117 123l233 -234l213 238l107 -107l-215 -237l238 -238l-115 -127l-236 238l-209 -234l-110 103l215 237z" />
<glyph unicode="&#xd8;" horiz-adv-x="768" d="M14 6l80 170q-18 58 -18 139v789q0 27 1 49t8 61t18.5 69t35 65t56 58t83.5 38.5t115 15.5q96 0 152.5 -27.5t97.5 -72.5l51 106l76 -34l-82 -175q10 -63 10 -133v-815q0 -18 -0.5 -33.5t-6.5 -51t-16.5 -63.5t-33 -63t-53.5 -58.5t-81 -39.5t-112 -16q-160 0 -252 102 l-57 -115zM260 338q1 -8 2.5 -32t3 -34.5t5 -31.5t8.5 -31.5t14.5 -25.5t21.5 -22t30 -12.5t40 -5.5q72 0 98.5 45.5t26.5 143.5v542zM262 535l246 532v68q0 24 -1 39t-7 41.5t-17.5 42t-35.5 28t-58 12.5q-67 0 -97 -40.5t-30 -137.5v-585z" />
<glyph unicode="&#xd9;" horiz-adv-x="768" d="M82 317v1129h186v-1143q0 -95 27.5 -131.5t87.5 -36.5q32 0 54 10.5t34.5 26t19 44.5t8 55.5t1.5 68.5v1106h188v-1096q0 -197 -78.5 -285t-232.5 -88q-295 0 -295 340zM96 1833h209l150 -248h-101z" />
<glyph unicode="&#xda;" horiz-adv-x="768" d="M82 317v1129h186v-1143q0 -95 27.5 -131.5t87.5 -36.5q32 0 54 10.5t34.5 26t19 44.5t8 55.5t1.5 68.5v1106h188v-1096q0 -197 -78.5 -285t-232.5 -88q-295 0 -295 340zM305 1587l146 250h208l-258 -250h-96z" />
<glyph unicode="&#xdb;" horiz-adv-x="768" d="M82 317v1129h186v-1143q0 -95 27.5 -131.5t87.5 -36.5q32 0 54 10.5t34.5 26t19 44.5t8 55.5t1.5 68.5v1106h188v-1096q0 -197 -78.5 -285t-232.5 -88q-295 0 -295 340zM141 1585l185 248h114l185 -246h-117l-125 125l-131 -127h-111z" />
<glyph unicode="&#xdc;" horiz-adv-x="768" d="M82 317v1129h186v-1143q0 -95 27.5 -131.5t87.5 -36.5q32 0 54 10.5t34.5 26t19 44.5t8 55.5t1.5 68.5v1106h188v-1096q0 -197 -78.5 -285t-232.5 -88q-295 0 -295 340zM174 1591v205h148v-205h-148zM438 1591v207h154v-207h-154z" />
<glyph unicode="&#xdd;" horiz-adv-x="681" d="M8 1446h195l133 -578l145 578h193l-240 -840v-606h-207v604zM264 1587l146 250h208l-258 -250h-96z" />
<glyph unicode="&#xde;" horiz-adv-x="681" d="M84 0v1446h188v-240h183q36 0 64.5 -4.5t49 -15t35 -21t23.5 -30.5t14.5 -35.5t8 -43t3 -46.5t0.5 -52v-276q0 -59 -2.5 -97t-10.5 -70.5t-20.5 -50t-35 -30t-52 -16.5t-73.5 -4h-189v-414h-186zM272 586h121q38 0 53 14t15 51v305q0 42 -14.5 58t-57.5 16h-117v-444z " />
<glyph unicode="&#xdf;" d="M82 0v1210q0 248 242 248q113 0 173 -56.5t60 -164.5v-76q0 -73 -14.5 -103t-59.5 -57q55 -19 73.5 -53.5t18.5 -122.5v-604q0 -114 -47.5 -171.5t-162.5 -57.5q-37 0 -78 8v145q1 0 11.5 -1t18.5 -1q46 0 70.5 24.5t24.5 96.5v549q0 42 -7.5 68.5t-23 38t-30 15 t-38.5 3.5h-18v123h20q28 0 45.5 9.5t25 30t9.5 39.5t2 52v25q0 49 -15.5 75.5t-64.5 26.5q-73 0 -73 -82v-1237h-162z" />
<glyph unicode="&#xe0;" d="M41 1430h209l147 -248h-98zM70 172v184q0 90 17 131.5t83 83.5l158 99q52 32 65 63v164q0 12 -0.5 19t-4 21t-10.5 22t-21.5 15t-34.5 7q-36 0 -54 -17.5t-18 -62.5v-156h-168v136q0 51 10 90t34.5 73.5t73 53t119.5 18.5q238 0 238 -225v-725q0 -105 31 -166h-176 q-21 55 -29 88q-34 -52 -69 -76t-91 -24q-81 0 -117 45.5t-36 138.5zM233 242q0 -63 14 -93t52 -30q94 0 94 168v256l-102 -72q-58 -40 -58 -111v-118z" />
<glyph unicode="&#xe1;" d="M70 172v184q0 90 17 131.5t83 83.5l158 99q52 32 65 63v164q0 12 -0.5 19t-4 21t-10.5 22t-21.5 15t-34.5 7q-36 0 -54 -17.5t-18 -62.5v-156h-168v136q0 51 10 90t34.5 73.5t73 53t119.5 18.5q238 0 238 -225v-725q0 -105 31 -166h-176q-21 55 -29 88q-34 -52 -69 -76 t-91 -24q-81 0 -117 45.5t-36 138.5zM233 242q0 -63 14 -93t52 -30q94 0 94 168v256l-102 -72q-58 -40 -58 -111v-118zM246 1182l147 248h205l-256 -248h-96z" />
<glyph unicode="&#xe2;" d="M70 172v184q0 90 17 131.5t83 83.5l158 99q52 32 65 63v164q0 12 -0.5 19t-4 21t-10.5 22t-21.5 15t-34.5 7q-36 0 -54 -17.5t-18 -62.5v-156h-168v136q0 51 10 90t34.5 73.5t73 53t119.5 18.5q238 0 238 -225v-725q0 -105 31 -166h-176q-21 55 -29 88q-34 -52 -69 -76 t-91 -24q-81 0 -117 45.5t-36 138.5zM90 1182l186 248h115l182 -248h-116l-123 129l-131 -129h-113zM233 242q0 -63 14 -93t52 -30q94 0 94 168v256l-102 -72q-58 -40 -58 -111v-118z" />
<glyph unicode="&#xe3;" d="M70 172v184q0 90 17 131.5t83 83.5l158 99q52 32 65 63v164q0 12 -0.5 19t-4 21t-10.5 22t-21.5 15t-34.5 7q-36 0 -54 -17.5t-18 -62.5v-156h-168v136q0 51 10 90t34.5 73.5t73 53t119.5 18.5q238 0 238 -225v-725q0 -105 31 -166h-176q-21 55 -29 88q-34 -52 -69 -76 t-91 -24q-81 0 -117 45.5t-36 138.5zM111 1210q0 83 37 136t92 53q44 0 112 -32t92 -32q19 0 29.5 11.5t12.5 21.5t3 29h66q0 -43 -10.5 -82.5t-41.5 -72t-77 -32.5q-36 0 -107 32t-96 32q-43 0 -47 -64h-65zM233 242q0 -63 14 -93t52 -30q94 0 94 168v256l-102 -72 q-58 -40 -58 -111v-118z" />
<glyph unicode="&#xe4;" d="M70 172v184q0 90 17 131.5t83 83.5l158 99q52 32 65 63v164q0 12 -0.5 19t-4 21t-10.5 22t-21.5 15t-34.5 7q-36 0 -54 -17.5t-18 -62.5v-156h-168v136q0 51 10 90t34.5 73.5t73 53t119.5 18.5q238 0 238 -225v-725q0 -105 31 -166h-176q-21 55 -29 88q-34 -52 -69 -76 t-91 -24q-81 0 -117 45.5t-36 138.5zM119 1206v205h149v-205h-149zM233 242q0 -63 14 -93t52 -30q94 0 94 168v256l-102 -72q-58 -40 -58 -111v-118zM383 1206v205h158v-205h-158z" />
<glyph unicode="&#xe5;" d="M70 172v184q0 90 17 131.5t83 83.5l158 99q52 32 65 63v164q0 12 -0.5 19t-4 21t-10.5 22t-21.5 15t-34.5 7q-36 0 -54 -17.5t-18 -62.5v-156h-168v136q0 51 10 90t34.5 73.5t73 53t119.5 18.5q238 0 238 -225v-725q0 -105 31 -166h-176q-21 55 -29 88q-34 -52 -69 -76 t-91 -24q-81 0 -117 45.5t-36 138.5zM168 1331q0 64 45.5 109t108.5 45q64 0 108.5 -46t44.5 -108q0 -64 -45.5 -108.5t-107.5 -44.5q-65 0 -109.5 44.5t-44.5 108.5zM233 242q0 -63 14 -93t52 -30q94 0 94 168v256l-102 -72q-58 -40 -58 -111v-118zM240 1331 q0 -37 23.5 -60.5t58.5 -23.5q36 0 58.5 24t22.5 60t-23.5 60t-57.5 24q-36 0 -59 -24.5t-23 -59.5z" />
<glyph unicode="&#xe6;" horiz-adv-x="937" d="M59 156v241q0 39 8 68t27.5 51.5t36 35.5t49.5 34l172 112q19 13 24 23.5t5 30.5v157q0 70 -72 70q-41 0 -58.5 -21.5t-17.5 -66.5v-148h-163v123q0 250 239 250q96 0 158 -47q67 47 162 47q111 0 173 -58t62 -167v-381h-319v-295q0 -23 2 -37.5t9 -30t23.5 -23 t43.5 -7.5q26 0 43 9t23.5 25.5t8.5 29.5t2 32v193h164v-187q0 -23 -3 -46.5t-16.5 -60t-37 -63.5t-69.5 -47t-109 -20q-54 0 -95 11t-66.5 30.5t-39 36.5t-25.5 40q-6 -13 -14.5 -25t-31.5 -37t-61 -40.5t-85 -15.5q-77 0 -114.5 42t-37.5 132zM221 201q0 -17 3.5 -33 t19.5 -32.5t43 -16.5q94 0 94 141v283q-23 -19 -53 -39l-52 -35q-34 -23 -44.5 -48t-10.5 -79v-141zM545 647h155v240q0 46 -14 69t-59 23q-43 0 -62.5 -22t-19.5 -72v-238z" />
<glyph unicode="&#xe7;" horiz-adv-x="624" d="M74 215v651q0 130 67.5 190t180.5 60q127 0 186 -65.5t59 -196.5v-152h-166v187q0 42 -17 65t-65 23q-53 0 -68 -27.5t-15 -81.5v-665q0 -86 79 -86q51 0 68.5 27t17.5 87v205h164v-200q0 -232 -209 -254l-30 -58q166 -8 166 -114q0 -46 -28 -79t-75.5 -49.5t-97.5 -24 t-107 -7.5h-53v63h39q154 0 154 66q0 18 -10 30t-32 17.5t-35.5 7.5t-41.5 4l-33 2l84 144q-99 14 -140.5 71.5t-41.5 159.5z" />
<glyph unicode="&#xe8;" d="M41 1430h209l147 -248h-98zM80 207v653q0 115 61.5 184.5t184.5 69.5q115 0 178 -61t63 -187v-354h-325v-309q0 -17 2 -28.5t8.5 -27t23 -24t41.5 -8.5q84 0 84 100v193h166v-152q0 -137 -60.5 -205.5t-189.5 -68.5q-237 0 -237 225zM242 647h159v232q0 24 -2 39t-9 30.5 t-23 23t-41 7.5q-23 0 -39.5 -7.5t-25 -17.5t-13 -28t-5.5 -31.5t-1 -34.5v-213z" />
<glyph unicode="&#xe9;" d="M80 207v653q0 115 61.5 184.5t184.5 69.5q115 0 178 -61t63 -187v-354h-325v-309q0 -17 2 -28.5t8.5 -27t23 -24t41.5 -8.5q84 0 84 100v193h166v-152q0 -137 -60.5 -205.5t-189.5 -68.5q-237 0 -237 225zM242 647h159v232q0 24 -2 39t-9 30.5t-23 23t-41 7.5 q-23 0 -39.5 -7.5t-25 -17.5t-13 -28t-5.5 -31.5t-1 -34.5v-213zM248 1182l147 248h205l-256 -248h-96z" />
<glyph unicode="&#xea;" d="M80 207v653q0 115 61.5 184.5t184.5 69.5q115 0 178 -61t63 -187v-354h-325v-309q0 -17 2 -28.5t8.5 -27t23 -24t41.5 -8.5q84 0 84 100v193h166v-152q0 -137 -60.5 -205.5t-189.5 -68.5q-237 0 -237 225zM90 1182l186 248h115l182 -248h-116l-123 129l-131 -129h-113z M242 647h159v232q0 24 -2 39t-9 30.5t-23 23t-41 7.5q-23 0 -39.5 -7.5t-25 -17.5t-13 -28t-5.5 -31.5t-1 -34.5v-213z" />
<glyph unicode="&#xeb;" d="M80 207v653q0 115 61.5 184.5t184.5 69.5q115 0 178 -61t63 -187v-354h-325v-309q0 -17 2 -28.5t8.5 -27t23 -24t41.5 -8.5q84 0 84 100v193h166v-152q0 -137 -60.5 -205.5t-189.5 -68.5q-237 0 -237 225zM127 1206v205h149v-205h-149zM242 647h159v232q0 24 -2 39 t-9 30.5t-23 23t-41 7.5q-23 0 -39.5 -7.5t-25 -17.5t-13 -28t-5.5 -31.5t-1 -34.5v-213zM391 1206v205h158v-205h-158z" />
<glyph unicode="&#xec;" horiz-adv-x="342" d="M-109 1430h209l148 -248h-98zM88 0v1098h164v-1098h-164z" />
<glyph unicode="&#xed;" horiz-adv-x="342" d="M88 0v1098h164v-1098h-164zM98 1182l148 248h205l-256 -248h-97z" />
<glyph unicode="&#xee;" horiz-adv-x="342" d="M-70 1182l187 248h114l183 -248h-117l-123 129l-131 -129h-113zM88 0v1098h164v-1098h-164z" />
<glyph unicode="&#xef;" horiz-adv-x="342" d="M-33 1206v205h150v-205h-150zM88 0v1098h164v-1098h-164zM231 1206v205h158v-205h-158z" />
<glyph unicode="&#xf0;" d="M78 270v547q0 102 18.5 160t77.5 98q64 43 129 43q26 0 59 -10t50 -29q-15 80 -54 150l-194 -76l-41 88l174 70q-18 21 -29 33t-16 16.5t-21 18t-28 24.5l127 63q20 -16 36 -30.5t23.5 -22t23 -24.5t23.5 -25l101 39l47 -92l-92 -37q44 -70 60.5 -162.5t16.5 -253.5v-616 q0 -33 -2.5 -59.5t-16.5 -66.5t-39 -67t-74.5 -47t-117.5 -20q-67 0 -114.5 20.5t-71.5 48t-37 71.5t-15.5 74t-2.5 74zM242 215q0 -18 0.5 -27.5t4.5 -25t12 -24t24 -15t39 -6.5q29 0 47.5 9.5t26.5 28t10 34t2 38.5v647q0 19 -1 31t-5 27.5t-12 24.5t-23.5 15.5t-38.5 6.5 q-30 0 -49 -10.5t-26.5 -32t-9 -36t-1.5 -40.5v-645z" />
<glyph unicode="&#xf1;" d="M80 0v1098h164v-72q65 90 159 90q166 0 166 -209v-907h-168v860q0 51 -14 79t-57 28q-51 0 -68.5 -34.5t-17.5 -90.5v-842h-164zM100 1210q0 83 37 136t92 53q44 0 112.5 -32t92.5 -32q19 0 29.5 11.5t12.5 21.5t3 29h66q0 -43 -10.5 -82.5t-41.5 -72t-77 -32.5 q-36 0 -107 32t-96 32q-43 0 -47 -64h-66z" />
<glyph unicode="&#xf2;" d="M41 1430h209l147 -248h-98zM78 295v547q0 53 11 97t36.5 85.5t77.5 65.5t125 24q124 0 182.5 -58.5t58.5 -191.5v-622q0 -55 -10.5 -97.5t-36 -81.5t-76 -60t-124.5 -21q-65 0 -111 17t-71.5 43t-39.5 70t-18 84t-4 99zM242 213q0 -52 16.5 -74t60.5 -22q54 0 71.5 28 t17.5 82v647q0 33 -4 53t-22.5 36t-53.5 16q-49 0 -67.5 -28t-18.5 -91v-647z" />
<glyph unicode="&#xf3;" d="M78 295v547q0 53 11 97t36.5 85.5t77.5 65.5t125 24q124 0 182.5 -58.5t58.5 -191.5v-622q0 -55 -10.5 -97.5t-36 -81.5t-76 -60t-124.5 -21q-65 0 -111 17t-71.5 43t-39.5 70t-18 84t-4 99zM242 213q0 -52 16.5 -74t60.5 -22q54 0 71.5 28t17.5 82v647q0 33 -4 53 t-22.5 36t-53.5 16q-49 0 -67.5 -28t-18.5 -91v-647zM248 1182l147 248h205l-256 -248h-96z" />
<glyph unicode="&#xf4;" d="M78 295v547q0 53 11 97t36.5 85.5t77.5 65.5t125 24q124 0 182.5 -58.5t58.5 -191.5v-622q0 -55 -10.5 -97.5t-36 -81.5t-76 -60t-124.5 -21q-65 0 -111 17t-71.5 43t-39.5 70t-18 84t-4 99zM90 1182l186 248h115l182 -248h-116l-123 129l-131 -129h-113zM242 213 q0 -52 16.5 -74t60.5 -22q54 0 71.5 28t17.5 82v647q0 33 -4 53t-22.5 36t-53.5 16q-49 0 -67.5 -28t-18.5 -91v-647z" />
<glyph unicode="&#xf5;" d="M78 295v547q0 53 11 97t36.5 85.5t77.5 65.5t125 24q124 0 182.5 -58.5t58.5 -191.5v-622q0 -55 -10.5 -97.5t-36 -81.5t-76 -60t-124.5 -21q-65 0 -111 17t-71.5 43t-39.5 70t-18 84t-4 99zM111 1210q0 83 37 136t92 53q44 0 112 -32t92 -32q19 0 29.5 11.5t12.5 21.5 t3 29h66q0 -43 -10.5 -82.5t-41.5 -72t-77 -32.5q-36 0 -107 32t-96 32q-43 0 -47 -64h-65zM242 213q0 -52 16.5 -74t60.5 -22q54 0 71.5 28t17.5 82v647q0 33 -4 53t-22.5 36t-53.5 16q-49 0 -67.5 -28t-18.5 -91v-647z" />
<glyph unicode="&#xf6;" d="M78 295v547q0 53 11 97t36.5 85.5t77.5 65.5t125 24q124 0 182.5 -58.5t58.5 -191.5v-622q0 -55 -10.5 -97.5t-36 -81.5t-76 -60t-124.5 -21q-65 0 -111 17t-71.5 43t-39.5 70t-18 84t-4 99zM117 1206v205h149v-205h-149zM242 213q0 -52 16.5 -74t60.5 -22q54 0 71.5 28 t17.5 82v647q0 33 -4 53t-22.5 36t-53.5 16q-49 0 -67.5 -28t-18.5 -91v-647zM381 1206v205h158v-205h-158z" />
<glyph unicode="&#xf7;" horiz-adv-x="1144" d="M162 532v154h821v-154h-821zM479 807v225h189v-225h-189zM481 184v228h189v-228h-189z" />
<glyph unicode="&#xf8;" d="M39 6l55 121q-16 53 -16 102v623q0 136 69.5 199t182.5 63q118 0 188 -70l39 76l57 -30l-55 -125q8 -45 8 -86v-654q0 -50 -11.5 -90t-28 -65t-42 -43t-46.5 -27t-47.5 -14t-40 -5.5t-29.5 -0.5q-49 0 -89 12.5t-58.5 26t-41.5 34.5l-37 -76zM240 199q0 -42 22 -61 t57 -19q24 0 41 8.5t26 19.5t13.5 29.5t5.5 31t1 30.5v401l-166 -352v-88zM240 442l168 351v90q0 94 -80 94q-29 0 -48 -10.5t-27 -31t-10.5 -37.5t-2.5 -42v-414z" />
<glyph unicode="&#xf9;" d="M41 1430h209l147 -248h-98zM74 197v901h170v-897q0 -32 19 -51t56 -19q27 0 44.5 11.5t25 32.5t10 39.5t2.5 43.5v840h164v-1098h-164v70q-65 -90 -161 -90q-166 0 -166 217z" />
<glyph unicode="&#xfa;" d="M74 197v901h170v-897q0 -32 19 -51t56 -19q27 0 44.5 11.5t25 32.5t10 39.5t2.5 43.5v840h164v-1098h-164v70q-65 -90 -161 -90q-166 0 -166 217zM246 1182l147 248h205l-256 -248h-96z" />
<glyph unicode="&#xfb;" d="M74 197v901h170v-897q0 -32 19 -51t56 -19q27 0 44.5 11.5t25 32.5t10 39.5t2.5 43.5v840h164v-1098h-164v70q-65 -90 -161 -90q-166 0 -166 217zM78 1182l186 248h115l182 -248h-117l-122 129l-132 -129h-112z" />
<glyph unicode="&#xfc;" d="M74 197v901h170v-897q0 -32 19 -51t56 -19q27 0 44.5 11.5t25 32.5t10 39.5t2.5 43.5v840h164v-1098h-164v70q-65 -90 -161 -90q-166 0 -166 217zM119 1206v205h149v-205h-149zM383 1206v205h158v-205h-158z" />
<glyph unicode="&#xfd;" horiz-adv-x="555" d="M8 1098h168l96 -871l101 871h170l-207 -1215l-6 -33t-9 -33t-15 -34t-23.5 -29t-35.5 -25.5t-50.5 -15t-67.5 -6.5q-26 0 -84 4v158q22 0 34.5 0.5t33.5 5.5t32.5 15t21 29.5t9.5 47.5q0 30 -4 53zM205 1182l147 248h205l-256 -248h-96z" />
<glyph unicode="&#xfe;" d="M76 -297v1743h168v-428q15 32 39.5 53.5t50 29.5t40 10.5t25.5 2.5q43 0 75 -15.5t48.5 -36t26.5 -49.5t12 -48t2 -39v-733q0 -20 -2 -40t-12 -52t-26.5 -55t-49.5 -40.5t-78 -17.5q-31 0 -56 8t-44.5 25.5t-28.5 27.5t-24 31v-377h-166zM242 227q0 -42 20 -67t57 -25 q80 0 80 105v620q0 20 -0.5 29.5t-4 27.5t-10.5 27.5t-22 17t-36 7.5q-23 0 -40 -9t-25 -21.5t-12.5 -32t-5.5 -32.5t-1 -32v-615z" />
<glyph unicode="&#xff;" horiz-adv-x="555" d="M8 1098h168l96 -871l101 871h170l-207 -1215l-6 -33t-9 -33t-15 -34t-23.5 -29t-35.5 -25.5t-50.5 -15t-67.5 -6.5q-26 0 -84 4v158q22 0 34.5 0.5t33.5 5.5t32.5 15t21 29.5t9.5 47.5q0 30 -4 53zM74 1206v205h149v-205h-149zM338 1206v205h158v-205h-158z" />
<glyph unicode="&#x152;" horiz-adv-x="980" d="M80 324v710q0 122 5.5 181.5t25.5 105.5q56 131 268 131q16 0 121 -6h440v-178h-293v-428h252v-176h-254v-490h309v-174h-485q-70 -8 -107 -8q-282 0 -282 332zM258 358q0 -114 17.5 -153t82.5 -39q61 0 79 37.5t18 120.5v862q0 19 -5.5 37t-27.5 35.5t-60 17.5 q-28 0 -48 -9t-30.5 -21.5t-16.5 -32t-7.5 -35t-1.5 -35.5v-785z" />
<glyph unicode="&#x153;" horiz-adv-x="980" d="M76 215v659q0 33 5 63.5t21 65t42 59.5t72 41.5t106 16.5q105 0 172 -51q75 51 168 51q65 0 113.5 -19t73 -44.5t38.5 -61.5t17 -59.5t3 -48.5v-375h-334v-295q0 -98 84 -98q24 0 41 8t25 18.5t12.5 28.5t5 28.5t0.5 28.5v175h166v-166q0 -129 -63.5 -194.5t-181.5 -65.5 q-23 0 -44 2.5t-37 7t-28 9t-23 11t-17 10.5t-13 10t-8 7q-72 -57 -173 -57q-243 0 -243 235zM238 217q0 -15 0.5 -23.5t4.5 -25.5t12 -27t24.5 -18t39.5 -8q91 0 91 108v649q0 24 -2 39.5t-10 33.5t-27 27t-49 9q-84 0 -84 -107v-657zM575 647h168v232q0 21 -2 35.5 t-9.5 31.5t-26 26t-46.5 9q-24 0 -41 -8.5t-25 -18.5t-12.5 -30.5t-5 -33t-0.5 -36.5v-207z" />
<glyph unicode="&#x178;" horiz-adv-x="681" d="M8 1446h195l133 -578l145 578h193l-240 -840v-606h-207v604zM133 1591v205h148v-205h-148zM397 1591v207h154v-207h-154z" />
<glyph unicode="&#x2c6;" horiz-adv-x="425" d="M-29 1182l187 248h114l183 -248h-117l-123 129l-131 -129h-113z" />
<glyph unicode="&#x2dc;" horiz-adv-x="425" d="M-10 1210q0 83 37 136t92 53q44 0 112.5 -32t92.5 -32q19 0 29.5 11.5t12.5 21.5t3 29h65q0 -43 -10.5 -82.5t-41.5 -72t-77 -32.5q-36 0 -107 32t-96 32q-43 0 -47 -64h-65z" />
<glyph unicode="&#x2000;" horiz-adv-x="933" />
<glyph unicode="&#x2001;" horiz-adv-x="1866" />
<glyph unicode="&#x2002;" horiz-adv-x="933" />
<glyph unicode="&#x2003;" horiz-adv-x="1866" />
<glyph unicode="&#x2004;" horiz-adv-x="622" />
<glyph unicode="&#x2005;" horiz-adv-x="466" />
<glyph unicode="&#x2006;" horiz-adv-x="311" />
<glyph unicode="&#x2007;" horiz-adv-x="311" />
<glyph unicode="&#x2008;" horiz-adv-x="233" />
<glyph unicode="&#x2009;" horiz-adv-x="373" />
<glyph unicode="&#x200a;" horiz-adv-x="103" />
<glyph unicode="&#x2010;" horiz-adv-x="468" d="M53 510v172h363v-172h-363z" />
<glyph unicode="&#x2011;" horiz-adv-x="468" d="M53 510v172h363v-172h-363z" />
<glyph unicode="&#x2012;" horiz-adv-x="468" d="M53 510v172h363v-172h-363z" />
<glyph unicode="&#x2013;" horiz-adv-x="712" d="M53 510v172h606v-172h-606z" />
<glyph unicode="&#x2014;" horiz-adv-x="1013" d="M53 510v172h908v-172h-908z" />
<glyph unicode="&#x2018;" horiz-adv-x="299" d="M68 901v219q0 59 2 91t10 68.5t25 60.5t46 50t74 52v-45q-46 -33 -60.5 -77t-14.5 -110v-45h81v-264h-163z" />
<glyph unicode="&#x2019;" horiz-adv-x="299" d="M66 1182v264h163v-219q0 -57 -2 -89.5t-10 -69t-25 -61t-45.5 -50.5t-72.5 -52v45q33 24 50 59t20 63t3 75v35h-81z" />
<glyph unicode="&#x201a;" horiz-adv-x="299" d="M63 0v264h164v-219q0 -72 -3.5 -109.5t-19 -78.5t-46.5 -70.5t-86 -62.5v45q46 33 59.5 76t13.5 110v45h-82z" />
<glyph unicode="&#x201c;" horiz-adv-x="598" d="M96 905v219q0 48 1.5 76.5t6.5 61.5t15 54t27.5 44.5t43 43.5t62.5 42v-45q-46 -33 -60 -76.5t-14 -110.5v-45h82v-264h-164zM365 905v219q0 73 3.5 110.5t19 78.5t46.5 70.5t86 62.5v-45q-46 -33 -60 -76.5t-14 -110.5v-45h82v-264h-163z" />
<glyph unicode="&#x201d;" horiz-adv-x="598" d="M84 1178v268h164v-221q0 -57 -2 -89.5t-10.5 -69t-25.5 -61t-45.5 -50.5t-72.5 -52v45q46 35 60 78t14 109v43h-82zM356 1178v268h164v-223q0 -48 -1 -74.5t-6 -60t-14.5 -54t-26.5 -45t-43.5 -45t-63.5 -41.5v43q33 24 50 59t20 63t3 75v35h-82z" />
<glyph unicode="&#x201e;" horiz-adv-x="598" d="M78 0v264h164v-219q0 -57 -2 -89.5t-10.5 -69t-25.5 -60.5t-45.5 -50t-72.5 -52v45q46 33 60 76t14 110v45h-82zM346 0v264h164v-219q0 -48 -1.5 -76.5t-6.5 -61t-15 -53.5t-27.5 -44.5t-43 -43.5t-62.5 -42v45q46 33 60 76t14 110v45h-82z" />
<glyph unicode="&#x2022;" horiz-adv-x="681" d="M123 459v540h436v-540h-436z" />
<glyph unicode="&#x2026;" horiz-adv-x="2048" d="M242 0v227h200v-227h-200zM924 0v227h200v-227h-200zM1606 0v227h200v-227h-200z" />
<glyph unicode="&#x202f;" horiz-adv-x="373" />
<glyph unicode="&#x2039;" horiz-adv-x="382" d="M57 487v215l269 244v-205l-160 -147l162 -145v-205z" />
<glyph unicode="&#x203a;" horiz-adv-x="382" d="M57 739v201l273 -238v-221l-271 -237v205l162 145z" />
<glyph unicode="&#x205f;" horiz-adv-x="466" />
<glyph unicode="&#x20ac;" horiz-adv-x="845" d="M35 580l22 112h119v90h-137l22 113h113v152q0 68 2 104.5t17.5 89t46.5 92.5q95 127 288 127q184 0 287 -100l-51 -168q-88 117 -234 117q-58 0 -95.5 -16t-55 -49.5t-23.5 -70.5t-6 -94v-184h357l-31 -111h-324v-92h307l-30 -112h-279v-203q0 -60 7 -100.5t27 -75 t59.5 -51.5t99.5 -17q138 0 241 109v-189q-122 -69 -292 -69q-214 0 -285 155q-33 70 -33 234v207h-139z" />
<glyph unicode="&#x2122;" horiz-adv-x="1161" d="M12 1329v117h404v-117h-137v-563h-134v563h-133zM471 766v680h195l114 -514l111 514h199v-680h-127l10 549l-125 -549h-139l-123 547q8 -467 8 -547h-123z" />
<glyph unicode="&#x25fc;" horiz-adv-x="1095" d="M0 0v1096h1096v-1096h-1096z" />
</font>
</defs>
</svg>
