<?xml version="1.0" encoding="utf-8"?>
<!-- Generator: Adobe Illustrator 16.0.4, SVG Export Plug-In . SVG Version: 6.00 Build 0)  -->
<!DOCTYPE svg PUBLIC "-//W3C//DTD SVG 1.1//EN" "http://www.w3.org/Graphics/SVG/1.1/DTD/svg11.dtd">
<svg version="1.1" id="Layer_1" xmlns="http://www.w3.org/2000/svg" xmlns:xlink="http://www.w3.org/1999/xlink" x="0px" y="0px"
	 width="290px" height="90px" viewBox="0 0 290 90" enable-background="new 0 0 290 90" xml:space="preserve">
<g>
	<path fill="#333333" d="M77.33,40.236c0,3.081-0.831,7.089-7.04,7.089c-5.818,0-6.747-4.596-6.747-7.578V18.822
		c0-5.133,3.52-6.893,6.844-6.893c3.715,0,6.551,2.053,6.551,6.404v5.084h-2.396v-2.982c0-3.374-0.245-6.307-4.107-6.307
		c-4.205,0-4.546,3.862-4.546,5.134v18.675c0,4.743,1.026,7.138,4.791,7.138c3.129,0,4.204-2.151,4.204-4.547v-5.622h2.445V40.236z"
		/>
	<path fill="#333333" d="M82.466,19.458c0-4.253,2.102-7.578,6.991-7.578c6.502,0,6.991,4.693,6.991,8.458v19.703
		c0,3.128-1.32,7.187-7.089,7.187c-5.133,0-6.893-2.982-6.893-7.578V19.458z M94.15,21.071c0-5.476-1.858-7.04-4.693-7.04
		c-3.422,0-4.645,2.64-4.645,5.231v20.289c0,3.471,1.417,5.524,4.693,5.524c3.96,0,4.645-3.422,4.645-5.916V21.071z"/>
	<path fill="#333333" d="M112.438,46.787l-8.018-32.609c0,0,0.196,29.089,0.196,32.609h-2.298V12.271h3.52l8.262,33.195
		c0,0-0.342-31.289-0.342-33.195h2.347v34.516H112.438z"/>
	<path fill="#333333" d="M135.76,40.236c0,3.081-0.831,7.089-7.04,7.089c-5.818,0-6.747-4.596-6.747-7.578V18.822
		c0-5.133,3.52-6.893,6.844-6.893c3.715,0,6.551,2.053,6.551,6.404v5.084h-2.396v-2.982c0-3.374-0.245-6.307-4.107-6.307
		c-4.205,0-4.546,3.862-4.546,5.134v18.675c0,4.743,1.026,7.138,4.791,7.138c3.129,0,4.204-2.151,4.204-4.547v-5.622h2.445V40.236z"
		/>
	<path fill="#333333" d="M143.438,14.422V27.72h8.116v2.103h-8.116v14.813h9.827v2.151h-12.173V12.271h12.222v2.151H143.438z"/>
	<path fill="#333333" d="M164.413,12.271c1.907,0,3.911,0.098,5.476,1.369c1.858,1.516,1.858,3.765,1.858,6.307v3.911
		c0,1.858-0.049,3.422-1.369,4.987c-1.76,2.103-4.645,2.2-6.16,2.2h-3.52v15.742h-2.396V12.271H164.413z M160.649,29.041h3.911
		c1.319,0,2.688-0.147,3.715-1.222c1.027-1.027,1.125-2.64,1.125-3.471v-3.471c0-4.645-0.294-6.6-4.84-6.6h-3.911V29.041z"/>
	<path fill="#333333" d="M182.603,14.422v32.365h-2.444V14.422h-6.014v-2.151h14.569v2.151H182.603z"/>
</g>
<rect x="214" y="12" fill="#333333" width="9.667" height="9.667"/>
<rect x="225" y="6.333" fill="#333333" width="4.333" height="4.333"/>
<path fill="#333333" d="M193,23v19.667h19.667V23H193z M207.057,33.739h-2.792v3.221h-2.427v-3.221h-2.812V31.7h2.812v-3.2h2.427
	v3.2h2.792V33.739z"/>
<polygon fill="#333333" points="75.521,83.975 75.521,49.998 86.733,49.998 86.733,54.232 80.043,54.232 80.043,64.194 
	86.012,64.194 86.012,68.43 80.092,68.43 80.092,79.691 86.733,79.691 86.733,83.975 "/>
<polygon fill="#333333" points="100.303,83.975 96.934,72.136 93.71,83.975 89.282,83.975 94.48,66.457 89.33,49.998 93.806,49.998 
	96.934,60.345 99.87,49.998 104.345,49.998 99.34,66.408 104.827,83.975 "/>
<polygon fill="#333333" points="108.097,83.975 108.097,49.998 119.31,49.998 119.31,54.232 112.621,54.232 112.621,64.194 
	118.588,64.194 118.588,68.43 112.669,68.43 112.669,79.691 119.31,79.691 119.31,83.975 "/>
<path fill="#333333" d="M138.173,75.841c0,4.188-1.347,8.566-7.411,8.566c-6.738,0-7.219-5.39-7.219-8.085V59.285
	c0-4.042,0.626-9.625,7.604-9.625c5.63,0,7.026,3.706,7.026,8.326v4.332h-4.476v-5.246c0-1.396-0.192-3.514-2.791-3.514
	c-2.262,0-2.839,1.732-2.839,3.706v19.347c0,3.128,0.722,3.898,2.743,3.898c2.599,0,2.84-1.974,2.84-3.994v-6.594h4.523V75.841z"/>
<path fill="#333333" d="M147.46,49.998v26.854c0,3.081,0.913,3.947,2.694,3.947c2.551,0,2.743-1.974,2.743-4.813V49.998h4.428
	v25.747c0,6.4-2.695,8.759-7.315,8.759c-5.245,0-6.929-3.417-6.929-7.988V49.998H147.46z"/>
<polygon fill="#333333" points="169.451,53.992 169.451,83.975 164.879,83.975 164.879,53.992 159.729,53.992 159.729,49.997 
	174.745,49.997 174.745,53.992 "/>
<rect x="177.005" y="49.998" fill="#333333" width="4.428" height="33.977"/>
<path fill="#333333" d="M200.873,76.37c0,6.594-3.562,7.941-7.411,7.941c-3.851,0-6.834-1.588-6.834-7.941V58.563
	c0-3.08,0.385-8.807,7.314-8.807c6.064,0,6.931,4.38,6.931,8.903V76.37z M196.445,58.709c0-3.562-0.337-5.054-2.599-5.054
	c-2.743,0-2.743,2.406-2.743,3.994v19.396c0,1.828,0.289,3.561,2.6,3.561c2.646,0,2.742-2.117,2.742-4.043V58.709z"/>
<path fill="#333333" d="M215.501,83.975l-5.535-24.929c0.049,4.812,0.482,24.929,0.482,24.929h-4.188V49.998h4.812l5.438,23.147
	c0,0-0.24-21.03-0.289-23.147h4.235v33.977H215.501z"/>
</svg>
