<?xml version="1.0" encoding="utf-8"?>
<!-- Generator: Adobe Illustrator 16.0.4, SVG Export Plug-In . SVG Version: 6.00 Build 0)  -->
<!DOCTYPE svg PUBLIC "-//W3C//DTD SVG 1.1//EN" "http://www.w3.org/Graphics/SVG/1.1/DTD/svg11.dtd">
<svg version="1.1" id="Layer_1" xmlns="http://www.w3.org/2000/svg" xmlns:xlink="http://www.w3.org/1999/xlink" x="0px" y="0px"
	 width="320px" height="63.333px" viewBox="0 0 320 63.333" enable-background="new 0 0 320 63.333" xml:space="preserve">
<g>
	<path fill="#333333" d="M86.658,44.761c0,6.488-2.088,13.275-11.486,13.275c-10.442,0-11.188-8.354-11.188-12.53V19.104
		c0-6.265,0.97-14.917,11.785-14.917c8.726,0,10.889,5.743,10.889,12.903v6.712h-6.937v-8.129c0-2.163-0.298-5.445-4.326-5.445
		c-3.506,0-4.4,2.685-4.4,5.743v29.983c0,4.848,1.119,6.041,4.251,6.041c4.028,0,4.4-3.058,4.4-6.19V35.586h7.011V44.761z"/>
	<path fill="#333333" d="M116.193,45.582c0,10.218-5.519,12.307-11.486,12.307s-10.591-2.462-10.591-12.307V17.985
		c0-4.773,0.597-13.649,11.337-13.649c9.398,0,10.74,6.787,10.74,13.798V45.582z M109.331,18.208c0-5.519-0.522-7.831-4.027-7.831
		c-4.251,0-4.251,3.729-4.251,6.19v30.058c0,2.834,0.448,5.52,4.028,5.52c4.102,0,4.251-3.282,4.251-6.266V18.208z"/>
	<path fill="#333333" d="M138.866,57.366l-8.577-38.635c0.074,7.458,0.746,38.635,0.746,38.635h-6.489V4.708h7.458l8.428,35.876
		c0,0-0.373-32.594-0.448-35.876h6.563v52.657H138.866z"/>
	<path fill="#333333" d="M165.343,10.899v46.466h-7.085V10.899h-7.981V4.708h23.271v6.191H165.343z"/>
	<path fill="#333333" d="M177.426,57.366V4.708h17.378v6.563h-10.367v15.439h9.249v6.563h-9.175v17.453h10.293v6.638H177.426z"/>
	<path fill="#333333" d="M215.836,57.366l-5.221-18.348l-4.998,18.348h-6.861l8.055-27.148l-7.98-25.509h6.937l4.849,16.036
		l4.549-16.036h6.937l-7.757,25.434l8.503,27.224H215.836z"/>
	<path fill="#333333" d="M240.597,10.899v46.466h-7.086V10.899h-7.98V4.708h23.271v6.191H240.597z"/>
</g>
<rect x="104.5" y="16.917" fill="#333333" width="83.75" height="27.25"/>
<g>
	<path fill="#FFFFFF" d="M116.582,36.6c0,2.785-0.896,5.698-4.93,5.698c-4.482,0-4.802-3.585-4.802-5.378V25.587
		c0-2.689,0.416-6.402,5.058-6.402c3.746,0,4.674,2.465,4.674,5.538v2.881h-2.977v-3.489c0-0.929-0.128-2.337-1.856-2.337
		c-1.505,0-1.889,1.153-1.889,2.465v12.869c0,2.081,0.48,2.594,1.825,2.594c1.729,0,1.889-1.312,1.889-2.657v-4.386h3.009V36.6z"/>
	<path fill="#FFFFFF" d="M129.291,36.953c0,4.386-2.369,5.281-4.93,5.281s-4.546-1.056-4.546-5.281V25.107
		c0-2.049,0.256-5.858,4.866-5.858c4.034,0,4.61,2.913,4.61,5.922V36.953z M126.346,25.204c0-2.369-0.224-3.361-1.729-3.361
		c-1.825,0-1.825,1.601-1.825,2.657v12.902c0,1.216,0.192,2.368,1.729,2.368c1.761,0,1.825-1.408,1.825-2.688V25.204z"/>
	<path fill="#FFFFFF" d="M138.99,42.01l-3.682-16.583c0.032,3.201,0.32,16.583,0.32,16.583h-2.785V19.409h3.201l3.618,15.398
		c0,0-0.16-13.989-0.192-15.398h2.817V42.01H138.99z"/>
	<path fill="#FFFFFF" d="M150.354,22.066V42.01h-3.042V22.066h-3.425v-2.657h9.988v2.657H150.354z"/>
	<path fill="#FFFFFF" d="M155.54,42.01V19.409h7.459v2.817h-4.45v6.627h3.97v2.817h-3.938v7.49h4.418v2.85H155.54z"/>
	<path fill="#FFFFFF" d="M172.026,42.01l-2.241-7.875l-2.145,7.875h-2.945l3.457-11.652l-3.425-10.949h2.977l2.081,6.883
		l1.953-6.883h2.977l-3.329,10.917l3.649,11.685H172.026z"/>
	<path fill="#FFFFFF" d="M182.653,22.066V42.01h-3.041V22.066h-3.425v-2.657h9.987v2.657H182.653z"/>
</g>
</svg>
