<?xml version="1.0" encoding="utf-8"?>
<!-- Generator: Adobe Illustrator 16.0.4, SVG Export Plug-In . SVG Version: 6.00 Build 0)  -->
<!DOCTYPE svg PUBLIC "-//W3C//DTD SVG 1.1//EN" "http://www.w3.org/Graphics/SVG/1.1/DTD/svg11.dtd">
<svg version="1.1" id="Layer_1" xmlns="http://www.w3.org/2000/svg" xmlns:xlink="http://www.w3.org/1999/xlink" x="0px" y="0px"
	 width="311px" height="106px" viewBox="0 0 311 106" enable-background="new 0 0 311 106" xml:space="preserve">
<polygon fill="#333333" points="240.86,97.667 69.5,97.667 83.307,34.667 254.667,34.667 "/>
<g>
	<path fill="#333333" d="M91.013,6.471c2.225,0,4.449,0.174,6.013,2.016c1.355,1.634,1.668,3.858,1.668,8.03v6.917
		c0,2.503-0.591,7.578-6.569,7.578h-3.233V6.471H91.013z M90.595,29.481h1.391c3.615,0,5.04-2.086,5.04-6.987v-6.013
		c0-1.738-0.035-4.658-0.869-6.222c-1.077-1.981-3.163-2.225-4.275-2.225h-1.286V29.481z"/>
	<path fill="#333333" d="M104.601,8v9.455h5.77v1.495h-5.77v10.532h6.987v1.529h-8.655V6.471h8.69V8H104.601z"/>
	<path fill="#333333" d="M115.964,22.981v1.946c0,1.842,0,2.851,0.73,3.789c0.799,1.008,2.12,1.182,2.85,1.182
		c2.433,0,3.163-1.634,3.163-4.032c0-2.642-0.765-3.823-3.58-6.604c-2.746-2.746-4.275-4.275-4.275-7.717
		c0-2.051,0.278-5.422,4.692-5.422c4.449,0,4.519,3.337,4.519,5.666v1.773h-1.668v-2.19c0-1.495,0-3.789-2.885-3.789
		c-2.12,0-2.955,1.286-2.955,3.685c0,2.398,0.487,3.406,4.171,7.16c2.537,2.607,3.685,3.893,3.685,7.126
		c0,2.329-0.313,5.839-5.005,5.839c-2.851,0-5.145-1.46-5.145-4.971v-3.441H115.964z"/>
	<path fill="#333333" d="M128.163,31.011V6.471h1.772v24.54H128.163z"/>
	<path fill="#333333" d="M143.316,31.011v-1.946c-0.486,0.799-1.807,2.294-4.102,2.294c-1.46,0-2.885-0.626-3.685-1.877
		c-0.765-1.182-0.938-2.225-0.938-4.797v-13.07c0-3.372,1.321-5.422,5.11-5.422c3.511,0,4.727,2.225,4.727,4.484v3.685h-1.633
		v-2.885c0-1.947-0.452-3.824-3.198-3.824c-2.642,0-3.337,1.842-3.337,3.998v12.548c0,2.016,0.035,3.094,0.487,3.998
		c0.243,0.521,1.043,1.668,2.676,1.668c2.19,0,3.476-2.503,3.476-4.102v-4.449h-3.615v-1.495h5.318v11.192H143.316z"/>
	<path fill="#333333" d="M156.244,31.011l-5.701-23.185c0,0,0.139,20.682,0.139,23.185h-1.634V6.471h2.503l5.874,23.602
		c0,0-0.243-22.246-0.243-23.602h1.669v24.54H156.244z"/>
	<path fill="#333333" d="M163.609,31.011V6.471h1.773v24.54H163.609z"/>
	<path fill="#333333" d="M177.234,31.011l-5.701-23.185c0,0,0.14,20.682,0.14,23.185h-1.634V6.471h2.502l5.875,23.602
		c0,0-0.243-22.246-0.243-23.602h1.668v24.54H177.234z"/>
	<path fill="#333333" d="M193.222,31.011v-1.946c-0.487,0.799-1.808,2.294-4.102,2.294c-1.46,0-2.886-0.626-3.685-1.877
		c-0.765-1.182-0.938-2.225-0.938-4.797v-13.07c0-3.372,1.32-5.422,5.109-5.422c3.511,0,4.728,2.225,4.728,4.484v3.685H192.7v-2.885
		c0-1.947-0.452-3.824-3.198-3.824c-2.642,0-3.337,1.842-3.337,3.998v12.548c0,2.016,0.035,3.094,0.486,3.998
		c0.244,0.521,1.043,1.668,2.677,1.668c2.19,0,3.477-2.503,3.477-4.102v-4.449h-3.615v-1.495h5.318v11.192H193.222z"/>
</g>
<g>
	<path fill="#FFFFFF" d="M99.685,57.892l1.011-4.404c0.578-2.527,0.939-3.755,0.939-4.91c0-2.96-2.238-3.321-3.177-3.321
		c-3.538,0-4.188,5.271-5.126,9.17l-5.704,23.828c-0.361,1.443-0.867,3.465-0.867,4.981c0,2.672,1.805,3.249,3.177,3.249
		c1.805,0,2.96-0.216,4.621-6.57l2.094-7.87h6.571l-1.733,7.221c-1.733,7.364-3.177,12.924-12.13,12.924
		c-5.271,0-9.17-2.599-9.17-8.159c0-2.526,0.433-4.837,1.588-9.675l4.838-20.217c1.733-7.076,3.466-14.225,12.203-14.225
		c3.321,0,9.098,0.939,9.098,8.015c0,2.311-0.505,3.538-1.372,7.581l-0.505,2.383H99.685z"/>
	<path fill="#FFFFFF" d="M126.614,91.539h-6.787l5.632-23.611h-6.932l-5.488,23.611h-6.643l11.77-50.977h6.643l-5.054,21.518h7.004
		l5.054-21.518h6.57L126.614,91.539z"/>
	<path fill="#FFFFFF" d="M155.204,91.539h-6.426l1.228-9.604h-8.087l-3.755,9.604h-6.57l20.506-50.977h8.303L155.204,91.539z
		 M144.157,76.087h6.643l3.249-26.643L144.157,76.087z"/>
	<path fill="#FFFFFF" d="M181.122,91.539h-6.932c0,0-0.577-35.886-0.577-38.052l-7.654,38.052h-6.354l11.77-50.977h6.932
		c0.072,2.455,0.649,37.907,0.649,37.907l8.159-37.907h6.065L181.122,91.539z"/>
	<path fill="#FFFFFF" d="M211.372,56.592l0.938-4.188c0.289-1.228,0.795-3.105,0.795-4.188c0-2.455-2.021-3.033-2.889-3.033
		c-3.394,0-4.043,4.693-5.126,9.242l-5.704,23.828c-0.65,2.599-0.867,3.537-0.867,4.981c0,2.744,1.878,3.321,3.033,3.321
		c2.815,0,3.538-2.527,4.549-6.932l2.094-9.17h-4.26l1.371-5.921h11.048l-6.21,27.005h-4.188l0.145-2.744
		c-0.723,0.723-2.021,3.466-6.138,3.466c-3.249,0-8.015-2.383-8.015-8.231c0-2.526,0.434-4.837,1.589-9.675l4.621-19.207
		c2.094-8.809,3.683-15.235,12.347-15.235c5.415,0,8.809,2.672,8.809,7.437c0,1.805-0.505,3.683-1.299,7.293l-0.434,1.949H211.372z"
		/>
	<path fill="#FFFFFF" d="M245.089,46.556h-9.604l-3.61,15.596h8.81l-1.444,6.065h-8.737l-3.971,17.112h11.119l-1.444,6.21h-17.906
		l11.77-50.977h16.391L245.089,46.556z"/>
</g>
</svg>
