<?xml version="1.0" encoding="utf-8"?>
<!-- Generator: Adobe Illustrator 16.0.4, SVG Export Plug-In . SVG Version: 6.00 Build 0)  -->
<!DOCTYPE svg PUBLIC "-//W3C//DTD SVG 1.1//EN" "http://www.w3.org/Graphics/SVG/1.1/DTD/svg11.dtd">
<svg version="1.1" id="Layer_1" xmlns="http://www.w3.org/2000/svg" xmlns:xlink="http://www.w3.org/1999/xlink" x="0px" y="0px"
	 width="297px" height="66px" viewBox="0 0 297 66" enable-background="new 0 0 297 66" xml:space="preserve">
<path fill="#333333" d="M74.589,5.586H63.523v45.687h11.584c5.112,0,6.471-2.2,6.471-7.895V12.963
	C81.579,8.175,80.22,5.586,74.589,5.586 M75.496,43.119c0,2.137-0.583,2.524-1.941,2.524h-4.013V11.151h3.495
	c2.071,0,2.459,0.971,2.459,3.171V43.119z"/>
<rect x="88.305" y="5.586" fill="#333333" width="5.954" height="45.688"/>
<polygon fill="#333333" points="120.917,5.586 114.963,5.586 113.117,20.742 120.423,8.814 "/>
<polygon fill="#333333" points="105.84,5.586 99.821,5.586 104.333,35.079 108.688,27.971 "/>
<path fill="#333333" d="M183.872,41.631c0,2.395-0.064,5.695-2.912,5.695c-1.384,0-2.21-0.538-2.66-1.575l-2.872,4.688
	c1.159,0.879,2.894,1.676,5.532,1.676c8.931,0,9.061-8.671,9.061-11.389c0-2.964-0.897-6.07-2.863-9.432l-3.868,6.314
	C183.65,38.828,183.872,40.152,183.872,41.631"/>
<polygon fill="#333333" points="196.165,16.591 196.165,51.273 202.118,51.273 202.118,6.874 "/>
<polygon fill="#333333" points="205.287,10.958 212.211,10.958 212.211,51.273 218.359,51.273 218.359,10.958 225.478,10.958 
	225.478,5.586 205.287,5.586 "/>
<polygon fill="#333333" points="242.688,5.586 238.094,23.835 233.887,5.586 227.739,5.586 234.663,32.184 234.663,51.273 
	241.199,51.273 241.199,32.118 248.771,5.586 "/>
<polygon fill="#333333" points="107.929,60.273 114.424,17.814 107.117,29.742 104.499,51.214 102.688,36.972 98.333,44.079 
	100.811,60.273 "/>
<polygon fill="#333333" points="120.415,60.273 135.493,60.273 135.493,54.515 126.562,54.515 126.562,39.371 134.521,39.371 
	134.521,33.676 126.498,33.676 126.498,20.281 135.493,20.281 135.493,14.586 120.415,14.586 "/>
<path fill="#333333" d="M159.757,45.261c0-5.63-0.971-7.96-5.242-8.154c2.848-0.324,5.501-0.453,5.501-7.96v-5.694
	c0-7.895-2.459-8.866-8.153-8.866h-9.901v45.687h6.018V39.241h2.848c2.911,0,2.911,4.336,2.911,7.313v4.141
	c0,4.336,0.13,5.308,0.906,9.578h6.276c-1.035-2.847-1.164-3.818-1.164-8.995V45.261z M154.062,29.146
	c0,2.848-0.388,5.048-2.977,5.048h-3.041V20.086h3.883c2.135,0,2.135,1.683,2.135,4.53V29.146z"/>
<path fill="#333333" d="M176.772,33.677c-2.136-3.171-4.013-5.954-4.013-10.613c0-2.136,0.065-4.659,2.978-4.659
	c2.199,0,2.394,2.135,2.394,3.365v7.83h5.5v-8.089c0-3.559-1.035-7.83-7.7-7.83c-6.729,0-9.254,4.659-9.254,9.448
	c0,5.565,1.877,8.865,3.688,11.647l2.46,3.755c1.633,2.473,3.531,4.917,4.465,8.075l3.867-6.312
	c-0.353-0.603-0.728-1.209-1.149-1.828L176.772,33.677z"/>
<path fill="#333333" d="M171.854,43.577h-5.564v7.571c0,2.654,0.129,5.048,2.005,7.248c0.295,0.332,0.674,0.693,1.135,1.042
	l2.871-4.687c-0.308-0.709-0.446-1.645-0.446-2.826V43.577z"/>
<polygon fill="#333333" points="190.165,14.586 190.165,25.591 196.118,15.874 196.118,14.586 "/>
</svg>
