<?xml version="1.0" encoding="utf-8"?>
<!-- Generator: Adobe Illustrator 16.0.4, SVG Export Plug-In . SVG Version: 6.00 Build 0)  -->
<!DOCTYPE svg PUBLIC "-//W3C//DTD SVG 1.1//EN" "http://www.w3.org/Graphics/SVG/1.1/DTD/svg11.dtd">
<svg version="1.1" id="Layer_1" xmlns="http://www.w3.org/2000/svg" xmlns:xlink="http://www.w3.org/1999/xlink" x="0px" y="0px"
	 width="325px" height="99.293px" viewBox="221.5 129.207 325 99.293" enable-background="new 221.5 129.207 325 99.293"
	 xml:space="preserve">
<g>
	<g enable-background="new    ">
		<path d="M278.39,168.87v-10.38c0-11.08-3.35-19.97-16.85-19.97c-16.74,0-18.24,13.39-18.24,23.08v40.86
			c0,6.46,1.16,19.39,17.31,19.39c14.55,0,17.78-10.5,17.78-20.54v-14.2h-10.85v15.81c0,4.85-0.58,9.58-6.81,9.58
			c-4.85,0-6.58-1.85-6.58-9.35v-46.4c0-4.73,1.39-8.88,6.81-8.88c6.23,0,6.7,5.08,6.7,8.42v12.58H278.39z"/>
		<path d="M320.08,169.36c0-1.43-0.19-3.61-2.87-3.61c-2.33,0-2.92,1.78-2.92,3.81v19.91c0,3.22,0.74,4.01,2.82,4.01
			c2.68,0,2.92-2.03,2.92-4.11v-6.78h4.18v-7.83h-4.13V169.36z M324.18,158.3c-0.24-10.18-2.86-19.55-16.59-19.55
			c-16.62,0-17.55,13.73-17.55,21.12v42.7c0,15.24,7.16,19.05,16.39,19.05c9.24,0,17.78-3.23,17.78-19.05v-10.04
			c-0.81,2.78-2.8,4.97-7.15,4.97c-1.41,0-2.55-0.23-3.47-0.62v6.16c0,4.61-0.23,9.69-6.58,9.69c-5.54,0-6.23-4.15-6.23-8.54v-46.51
			c0-3.81,0-9.58,6.57-9.58c5,0,6.08,3.04,6.22,10.2c0.02,0.61,0.02,1.25,0.02,1.92v2.28c1.01-0.49,2.28-0.77,3.87-0.77
			c4.03,0,5.96,1.85,6.75,4.58v-6.21C324.21,159.5,324.2,158.9,324.18,158.3z"/>
		<path d="M361.02,139.33c0.04,1.84,0.15,9.71,0.26,18.97c0.02,1.24,0.03,2.5,0.04,3.78h3.2v34.97h-5.11l-5.69-25.66
			c0.05,4.96,0.49,25.66,0.49,25.66h-0.19l0.77,3.49l4.5,20.27h11.89v-54.62h-4.19v-4.11h4.19v-22.75H361.02z M337.13,165.85v27.72
			c2.57-0.08,2.67-2.21,2.67-4.15v-18.37C339.8,167.39,339.45,165.85,337.13,165.85z M353.13,158.3l-4.46-18.97h-11.54v22.5h0.09
			c6.24,0,7.13,4.51,7.13,9.17v18.22c0,6.56-3.42,8.08-7.22,8.17v23.42h10.04c0,0-0.2-9.06-0.42-20.27
			c-0.31-14.66-0.67-32.98-0.73-39.52l3.88,17.48v-16.42h4.11L353.13,158.3z"/>
		<path d="M376.94,139.33v9.58h12.35v13.17h7.27v4.36h-6.88v10.25h6.14v4.36h-6.09v11.59h6.83v4.41h-7.27v23.76h10.97v-23.76h-1.07
			l1.07-3.61v-28.1l-1.02-3.26h1.02v-13.17h12.7v-9.58H376.94z"/>
		<path d="M418.95,139.33v22.75h10.85v-12.6h16.05v-10.15H418.95z M429.92,210.54v-27.01h14.2v-10.16H429.8v-7.18h-2.77v30.86h-4.71
			v-30.86h-3.37v54.62h26.9v-10.27H429.92z"/>
		<path d="M476.08,178.68l12-39.35h-10.73l-7.04,24.81l-7.5-24.81h-10.74l12.35,39.47l-12.46,42.01h10.62l7.73-28.39l8.08,28.39
			h10.85L476.08,178.68z"/>
		<path d="M493.51,139.33v9.58h12.35v71.9h10.96v-71.9h12.7v-9.58H493.51z"/>
	</g>
	<g>
		<path d="M339.8,171.05v18.37c0,1.94-0.1,4.07-2.67,4.15c-0.05,0.01-0.11,0.01-0.16,0.01c-2.37,0-2.67-1.78-2.67-3.66v-19.96
			c0-1.64,0-4.11,2.82-4.11h0.01C339.45,165.85,339.8,167.39,339.8,171.05z"/>
		<path d="M306,158.3v42.24h129.67V158.3H306z M324.69,174.76h-4.61v-5.4c0-1.43-0.19-3.61-2.87-3.61c-2.33,0-2.92,1.78-2.92,3.81
			v19.91c0,3.22,0.74,4.01,2.82,4.01c2.68,0,2.92-2.03,2.92-4.11v-6.78h4.66v6.09c0,1.31-0.13,2.64-0.48,3.85
			c-0.81,2.78-2.8,4.97-7.15,4.97c-1.41,0-2.55-0.23-3.47-0.62c-3.64-1.52-3.96-5.49-3.96-7.71v-17.53c0-3.24,0.39-7.45,3.96-9.14
			c1.01-0.49,2.28-0.77,3.87-0.77c4.03,0,5.96,1.85,6.75,4.58c0.35,1.19,0.48,2.55,0.48,3.99V174.76z M344.35,189.22
			c0,6.56-3.42,8.08-7.22,8.17c-0.13,0.01-0.27,0.01-0.4,0.01c-3.97,0-7.04-1.64-7.04-8.18V170.9c0-3.16,0.4-9.02,7.44-9.07h0.09
			c6.24,0,7.13,4.51,7.13,9.17V189.22z M364.52,197.05h-5.11l-5.69-25.66c0.05,4.96,0.49,25.66,0.49,25.66h-4.31v-34.97h4.96
			l5.59,23.83c0,0-0.24-21.65-0.29-23.83h4.36V197.05z M382.45,166.19H377v30.86h-4.71v-30.86h-5.3v-4.11h15.46V166.19z
			 M396.56,166.44h-6.88v10.25h6.14v4.36h-6.09v11.59h6.83v4.41h-11.54v-34.97h11.54V166.44z M410.53,197.05l-3.46-12.18
			l-3.32,12.18h-4.56l1.07-3.61l4.28-14.42l-4.28-13.68l-1.02-3.26h4.61l3.22,10.65l3.02-10.65h4.6l-5.15,16.89l5.65,18.08H410.53z
			 M427.03,197.05h-4.71v-30.86h-5.3v-4.11h15.46v4.11h-5.45V197.05z"/>
	</g>
</g>
</svg>
