<?xml version="1.0" encoding="utf-8"?>
<!-- Generator: Adobe Illustrator 16.0.4, SVG Export Plug-In . SVG Version: 6.00 Build 0)  -->
<!DOCTYPE svg PUBLIC "-//W3C//DTD SVG 1.1//EN" "http://www.w3.org/Graphics/SVG/1.1/DTD/svg11.dtd">
<svg version="1.1" id="Layer_1" xmlns="http://www.w3.org/2000/svg" xmlns:xlink="http://www.w3.org/1999/xlink" x="0px" y="0px"
	 width="325px" height="113.334px" viewBox="664.5 115.166 325 113.334" enable-background="new 664.5 115.166 325 113.334"
	 xml:space="preserve">
<g id="interactive">
	<g>
		
			<text transform="matrix(1 0 0 1 690.4902 183.519)" stroke="#000000" stroke-miterlimit="10" font-family="'AkzidenzGroteskBQ-LigCndIt'" font-size="80.7308">INTER</text>
		
			<text transform="matrix(1 0 0 1 806.0283 222.7197)" stroke="#000000" stroke-miterlimit="10" font-family="'AkzidenzGroteskBQ-MdCndIt'" font-size="80.7308">ACTIVE</text>
		<g id="old_arrow">
			<path id="arrow_2_" stroke="#000000" stroke-miterlimit="10" d="M845.023,129.207c0.619,0.155,1.237,0.155,1.702,0.31
				c6.344,1.083,10.831,4.642,13.616,10.367c1.084,2.321,1.548,4.952,1.548,7.428c0,0.773,0,1.702,0,2.476c1.702,0,3.404,0,4.952,0
				c-3.404,3.404-6.809,6.809-10.059,10.058c-3.249-3.25-6.653-6.654-10.058-10.058c1.547,0,3.249,0,4.797,0l0.154-0.155
				c0-2.166,0.155-4.178-0.464-6.189c-1.547-4.952-6.809-9.129-12.069-8.356c-6.499,0.929-11.142,7.583-13.617,13.772
				c0,0.155,0.31-4.642,0.31-4.642c0.928-2.321,1.237-3.095,1.856-4.333c2.631-5.88,6.809-9.129,13.153-10.367
				c0.619-0.155,1.393-0.155,2.012-0.31C843.631,129.207,844.25,129.207,845.023,129.207z"/>
			<path id="arrow_3_" stroke="#000000" stroke-miterlimit="10" d="M783.282,219.884c-0.619-0.155-1.237-0.155-1.702-0.31
				c-6.344-1.083-10.832-4.642-13.617-10.367c-1.083-2.321-1.547-4.952-1.547-7.428c0-0.773,0-1.702,0-2.476
				c-1.702,0-3.404,0-4.952,0c3.404-3.404,6.809-6.809,10.059-10.058c3.249,3.25,6.653,6.654,10.058,10.058
				c-1.547,0-3.249,0-4.797,0l-0.154,0.155c0,2.167-0.155,4.178,0.464,6.189c1.548,4.952,6.809,9.129,12.069,8.356
				c6.499-0.929,11.142-7.582,13.617-13.772c0-0.155-0.31,4.642-0.31,4.642c-0.929,2.321-1.237,3.095-1.856,4.333
				c-2.631,5.88-6.809,9.129-13.153,10.367c-0.619,0.155-1.393,0.155-2.012,0.31C784.675,219.884,784.056,219.884,783.282,219.884z"
				/>
			<line stroke="#000000" stroke-miterlimit="10" x1="826.609" y1="144.372" x2="800.613" y2="207.505"/>
		</g>
		<path stroke="#000000" stroke-miterlimit="10" d="M825.99,147.93c2.631-5.88,6.963-11.76,13.152-12.688
			c5.107-0.773,10.522,3.404,12.07,8.356c0.619,2.012,0.619,4.178,0.464,6.189c0,0,0,0-0.154,0.155c-1.548,0-3.25,0-4.797,0
			c3.404,3.404,6.808,6.809,10.058,10.058c3.404-3.404,6.654-6.654,10.059-10.058c-1.703,0-3.25,0-4.952,0c0-0.928,0-1.702,0-2.476
			c0-2.631-0.464-5.106-1.548-7.428c-2.785-5.725-7.272-9.284-13.616-10.367c-0.619-0.155-1.238-0.155-1.702-0.31
			c-0.773,0-1.393,0-2.167,0c-0.618,0.155-1.393,0.155-2.011,0.31c-6.345,1.238-10.522,4.487-13.153,10.367
			c-0.619,1.393-0.929,2.167-1.856,4.333l0,0l-21.354,51.837c-2.631,6.189-8.82,17.021-15.164,17.95
			c-5.106,0.773-10.522-3.404-12.069-8.356c-0.619-2.012-0.619-4.178-0.465-6.189c0,0,0,0,0.155-0.155c1.547,0,3.249,0,4.797,0
			c-3.404-3.404-6.809-6.809-10.059-10.058c-3.404,3.404-6.653,6.654-10.058,10.058c1.702,0,3.249,0,4.951,0
			c0,0.928,0,1.702,0,2.476c0,2.631,0.465,5.106,1.548,7.428c2.785,5.725,7.272,9.284,13.617,10.368
			c0.618,0.154,1.237,0.154,1.702,0.309c0.773,0,1.393,0,2.166,0c0.619-0.155,1.393-0.155,2.012-0.309
			c6.344-1.238,11.296-5.88,13.152-10.368C806.957,193.733,825.99,147.775,825.99,147.93z"/>
	</g>
</g>
</svg>
