<?xml version="1.0" encoding="utf-8"?>
<!-- Generator: Adobe Illustrator 16.0.4, SVG Export Plug-In . SVG Version: 6.00 Build 0)  -->
<!DOCTYPE svg PUBLIC "-//W3C//DTD SVG 1.1//EN" "http://www.w3.org/Graphics/SVG/1.1/DTD/svg11.dtd">
<svg version="1.1" id="Layer_1" xmlns="http://www.w3.org/2000/svg" xmlns:xlink="http://www.w3.org/1999/xlink" x="0px" y="0px"
	 width="325px" height="104px" viewBox="221.5 587.5 325 104" enable-background="new 221.5 587.5 325 104" xml:space="preserve">
<text transform="matrix(1 0 0 1 238.6846 671.3262)" display="none" fill="#FFFFFF" enable-background="new    " font-family="'AkzidenzGroteskBQ-MdCnd'" font-size="100.1253">DIVERSITY</text>
<rect x="319.173" y="537.98" transform="matrix(-0.8527 -0.5224 0.5224 -0.8527 355.6765 1378.957)" display="none" fill="#FFFFFF" width="106.151" height="202.708"/>
<path d="M259.729,600.652h-17.176v70.715h17.95c7.892,0,10.058-3.404,10.058-12.224v-47.041
	C270.561,604.675,268.395,600.652,259.729,600.652z M261.122,658.679c0,3.25-0.929,3.869-2.94,3.869h-6.189v-53.386h5.261
	c3.25,0,3.869,1.548,3.869,4.952V658.679z"/>
<rect x="280.928" y="600.652" width="9.285" height="70.715"/>
<polygon points="331.373,600.652 322.244,600.652 319.304,624.018 330.6,605.604 "/>
<polygon points="308.008,600.652 298.724,600.652 305.687,646.3 312.495,635.313 "/>
<path d="M428.858,656.357c0,3.714-0.154,8.82-4.487,8.82c-2.166,0-3.404-0.773-4.178-2.476l-4.487,7.272
	c1.856,1.393,4.487,2.631,8.511,2.631c13.771,0,14.081-13.462,14.081-17.641c0-4.642-1.393-9.438-4.487-14.545l-6.035,9.748
	C428.549,652.025,428.858,654.191,428.858,656.357z"/>
<polygon points="447.892,617.673 447.892,671.367 457.021,671.367 457.021,602.663 "/>
<polygon points="461.973,609.008 472.65,609.008 472.65,671.367 482.244,671.367 482.244,609.008 493.23,609.008 493.23,600.652 
	461.973,600.652 "/>
<polygon points="519.846,600.652 512.728,628.814 506.229,600.652 496.635,600.652 507.466,641.812 507.466,671.367 
	517.524,671.367 517.524,641.657 529.284,600.652 "/>
<path fill="none" d="M404.72,682.354c-2.94-3.404-3.095-7.117-3.095-11.141v-11.761h8.665v12.844c0,1.856,0.155,3.249,0.619,4.333
	l7.737-12.534c-1.393-4.952-4.333-8.665-6.964-12.534l-3.868-5.88c-2.785-4.333-5.726-9.438-5.726-17.949
	c0-7.428,3.868-14.546,14.391-14.546c10.368,0,11.915,6.654,11.915,12.069v12.534h-8.511V625.72c0-1.857-0.31-5.262-3.714-5.262
	c-4.487,0-4.642,3.869-4.642,7.273c0,7.272,2.939,11.45,6.189,16.402l4.951,7.427c0.619,0.929,1.238,1.857,1.702,2.785
	l13.927-22.746v-17.021h9.284v2.012l13.463-21.973l-90.522-55.552l-49.207,80.465l-10.058,65.764h-10.986l-3.869-25.067
	l-31.722,51.837l90.522,55.552l51.219-83.56C405.803,683.438,405.184,682.818,404.72,682.354z M353.965,623.398h-13.927v20.735
	h12.379v8.819h-12.379v23.366h13.772v8.975h-23.366v-70.716h23.366v8.82H353.965z M383.521,685.294
	c-1.238-6.653-1.393-8.046-1.393-14.854v-6.345c0-4.643,0-11.296-4.488-11.296h-4.333v32.495h-9.284v-70.716h15.319
	c8.82,0,12.688,1.548,12.688,13.771v8.82c0,11.605-4.178,11.761-8.51,12.379c6.653,0.31,8.046,3.869,8.046,12.689v9.284
	c0,8.046,0.155,9.438,1.857,13.927h-9.903V685.294z"/>
<polygon points="311.257,685.294 321.315,619.53 310.02,637.944 305.996,671.213 303.211,649.24 296.402,660.227 300.271,685.294 
	"/>
<polygon points="330.6,685.294 353.965,685.294 353.965,676.319 340.193,676.319 340.193,652.953 352.418,652.953 352.418,644.134 
	340.039,644.134 340.039,623.398 353.965,623.398 353.965,614.578 330.6,614.578 "/>
<path d="M391.567,662.083c0-8.665-1.547-12.379-8.046-12.688c4.333-0.464,8.51-0.773,8.51-12.379v-8.82
	c0-12.225-3.868-13.771-12.688-13.771h-15.319v70.716h9.284v-32.495h4.333c4.488,0,4.488,6.653,4.488,11.296v6.344
	c0,6.654,0.154,8.201,1.393,14.855h9.749c-1.547-4.333-1.857-5.881-1.857-13.927v-9.13H391.567z M382.747,637.016
	c0,4.332-0.619,7.736-4.642,7.736h-4.642v-21.817h6.035c3.25,0,3.25,2.63,3.25,6.963V637.016z"/>
<path d="M417.872,644.134c-3.249-4.952-6.189-9.284-6.189-16.402c0-3.25,0.155-7.273,4.643-7.273c3.404,0,3.714,3.25,3.714,5.262
	v12.069h8.51v-12.534c0-5.57-1.547-12.069-11.914-12.069c-10.368,0-14.391,7.272-14.391,14.546c0,8.665,2.939,13.771,5.725,17.949
	l3.869,5.88c2.476,3.869,5.416,7.582,6.963,12.534l6.035-9.749c-0.619-0.928-1.084-1.856-1.702-2.785L417.872,644.134z"/>
<path d="M410.29,659.453h-8.665v11.76c0,4.178,0.154,7.736,3.095,11.141c0.464,0.465,1.083,1.084,1.702,1.548l4.487-7.272
	c-0.464-1.083-0.619-2.477-0.619-4.333V659.453z"/>
<polygon points="438.607,614.578 438.607,631.6 447.737,616.59 447.737,614.578 "/>
</svg>
