<?xml version="1.0" encoding="utf-8"?>
<!-- Generator: Adobe Illustrator 16.0.4, SVG Export Plug-In . SVG Version: 6.00 Build 0)  -->
<!DOCTYPE svg PUBLIC "-//W3C//DTD SVG 1.1//EN" "http://www.w3.org/Graphics/SVG/1.1/DTD/svg11.dtd">
<svg version="1.1" id="Layer_1" xmlns="http://www.w3.org/2000/svg" xmlns:xlink="http://www.w3.org/1999/xlink" x="0px" y="0px"
	 width="298px" height="50px" viewBox="0 0 298 50" enable-background="new 0 0 298 50" xml:space="preserve">
<g>
	<path fill="#333333" d="M52.575,44.383V6.916h2.707v37.467H52.575z"/>
	<path fill="#333333" d="M73.379,44.383L64.676,8.985c0,0,0.212,31.577,0.212,35.398h-2.494V6.916h3.821l8.969,36.035
		c0,0-0.371-33.965-0.371-36.035h2.547v37.467H73.379z"/>
	<path fill="#333333" d="M90.046,9.25v35.132h-2.654V9.25h-6.527V6.916H96.68V9.25H90.046z"/>
	<path fill="#333333" d="M102.785,9.25v14.435h8.81v2.282h-8.81v16.081h10.667v2.335h-13.214V6.916h13.267V9.25H102.785z"/>
	<path fill="#333333" d="M132.506,44.383l-6.846-18.256h-4.086v18.256h-2.6V6.916h7.482c4.617,0,7.165,1.963,7.165,6.527v6.262
		c0,4.352-2.918,5.732-5.254,6.209l6.899,18.468H132.506z M121.574,23.898h4.776c3.502,0,4.511-1.857,4.511-3.875v-5.891
		c0-3.078-0.796-4.988-4.14-4.988h-5.148V23.898z"/>
</g>
<g>
	<path fill="#333333" d="M148.379,44.383l-0.955-6.899h-5.625l-0.849,6.899h-4.83l5.307-37.467h5.997l5.784,37.467H148.379z
		 M144.398,13.443l-2.069,19.477h4.458L144.398,13.443z"/>
	<path fill="#333333" d="M172.846,35.414c0,4.617-1.485,9.446-8.173,9.446c-7.43,0-7.96-5.943-7.96-8.916V17.158
		c0-4.458,0.689-10.614,8.385-10.614c6.209,0,7.748,4.086,7.748,9.181v4.776h-4.936v-5.785c0-1.539-0.212-3.874-3.078-3.874
		c-2.494,0-3.131,1.91-3.131,4.086v21.334c0,3.45,0.796,4.299,3.025,4.299c2.865,0,3.131-2.176,3.131-4.404v-7.271h4.988V35.414z"/>
	<path fill="#333333" d="M185.798,11.32v33.062h-5.041V11.32h-5.679V6.916h16.558v4.405H185.798z"/>
	<path fill="#333333" d="M194.133,44.383V6.916h4.882v37.467H194.133z"/>
	<path fill="#333333" d="M215.149,44.383h-5.838L203.58,6.916h4.936l3.821,30.038l3.661-30.038h4.883L215.149,44.383z"/>
	<path fill="#333333" d="M225.394,44.383V6.916h12.366v4.67h-7.377v10.985h6.58v4.67h-6.527v12.418h7.324v4.724H225.394z"/>
</g>
<polygon fill="#333333" points="29.487,28.554 29.487,24.308 43.684,13.96 43.684,18.524 32.699,26.272 43.684,33.914 
	43.684,38.851 "/>
<polygon fill="#333333" points="244.479,38.85 244.479,34.339 255.464,26.591 244.479,18.949 244.479,13.96 258.676,24.256 
	258.676,28.501 "/>
</svg>
