<?xml version="1.0" encoding="utf-8"?>
<!-- Generator: Adobe Illustrator 16.0.4, SVG Export Plug-In . SVG Version: 6.00 Build 0)  -->
<!DOCTYPE svg PUBLIC "-//W3C//DTD SVG 1.1//EN" "http://www.w3.org/Graphics/SVG/1.1/DTD/svg11.dtd">
<svg version="1.1" id="Layer_1" xmlns="http://www.w3.org/2000/svg" xmlns:xlink="http://www.w3.org/1999/xlink" x="0px" y="0px"
	 width="297px" height="142px" viewBox="0 0 297 142" enable-background="new 0 0 297 142" xml:space="preserve">
<path fill="#333333" d="M95.467,129.709c0,0,0-36.646-0.396-46.242c-1.893,10.787-7.781,47.437-7.781,47.437l-8.304,1.213
	l-8.758-47.884v49.163l-9.951,1.453V72.317l15.032-0.042l7.923,39.249l7.125-39.292l13.443-0.038v56.298L95.467,129.709z"/>
<path fill="#333333" d="M130.584,124.58l-1.489-9.482l-9.02,1.08l-1.401,10.141l-8.164,1.193l8.953-55.363l9.632-0.027l8.836,51.385
	L130.584,124.58z M124.3,81.432l-3.354,28.083l7.151-0.731L124.3,81.432z"/>
<polygon fill="#333333" points="152.939,77.845 152.939,121.314 145.898,122.343 145.898,77.983 137.613,78.146 137.613,72.098 
	160.749,72.032 160.749,77.69 "/>
<polygon fill="#333333" points="176.862,77.374 176.862,117.819 170.775,118.709 170.775,77.494 163.635,77.634 163.635,72.024 
	183.634,71.967 183.634,77.241 "/>
<polygon fill="#333333" points="186.733,116.378 186.733,71.958 199.911,71.92 199.911,77.222 192.188,77.382 192.188,90.177 
	199.097,89.744 199.097,95.06 192.245,95.612 192.245,110.073 199.911,109.091 199.911,114.453 "/>
<path fill="#333333" d="M215.117,112.231c-0.587-3.693-0.684-4.541-0.684-8.38v-3.667c0-2.636,0-6.475-2.222-6.297l-2.206,0.177
	v18.914l-4.778,0.698V71.906l7.778-0.023c4.288-0.012,6.101,0.828,6.101,7.703v4.959c0,6.537-1.957,6.791-4.087,7.23
	c3.184-0.063,3.897,1.913,3.897,6.819v5.244c0,4.512,0.095,5.344,0.851,7.714L215.117,112.231z M210.056,89.521l2.354-0.15
	c1.975-0.127,2.268-2.093,2.268-4.612v-4.007c0-2.52,0-4.007-1.623-3.976l-2.999,0.062V89.521z"/>
<path fill="#333333" d="M227.512,96.323v7.049c0,2.459,0.533,3.646,2.121,3.433c1.916-0.257,1.96-3.007,1.96-4.998
	c0-4.413-1.871-7.045-3.413-9.798l-1.696-3.05c-1.264-2.286-2.583-5.035-2.583-9.798c0-4.098,1.772-8.085,6.39-8.085
	c4.42,0,5.094,3.502,5.094,6.419v6.631l-3.617,0.182v-6.509c0-1.021-0.131-2.795-1.607-2.772c-1.979,0.03-2.025,2.156-2.025,3.956
	c0,3.925,1.28,6.202,2.723,8.771l2.154,3.826c1.826,3.207,2.625,6.155,2.625,9.018c0,2.226-0.084,9.34-6.003,10.22
	c-2.522,0.375-3.869-0.744-4.594-1.633c-1.322-1.698-1.414-3.737-1.414-6.011v-6.485L227.512,96.323z"/>
<path fill="#333333" d="M64.02,42.92c1.64-0.344,2.05,0.824,2.046,3.559l-0.007,5.689c-0.004,3.557-0.093,4.965-2.009,5.15
	l-1.922,0.187l-0.004,11.697l-1.821,0.007V43.7L64.02,42.92z M62.15,54.422l1.213-0.147c0.522-0.064,0.69-0.345,0.69-1.24
	l0.005-5.598c0.001-0.971-0.125-1.285-0.731-1.173l-1.174,0.217L62.15,54.422z"/>
<polygon fill="#333333" points="68.189,69.179 68.235,42.036 73.682,40.892 73.672,44.434 70.372,45.041 70.355,53.152 
	73.285,52.79 73.275,56.305 70.37,56.589 70.351,65.711 73.611,65.614 73.6,69.159 "/>
<path fill="#333333" d="M81.152,69.13c-0.31-2.765-0.361-3.393-0.348-6.204l0.012-2.689c0.008-1.935,0.021-4.756-1.178-4.638
	l-1.154,0.113l-0.052,13.429l-2.37,0.008l0.098-28.777l3.97-0.833c2.388-0.502,3.44-0.075,3.414,5.189l-0.019,3.789
	c-0.025,4.986-1.16,5.196-2.359,5.539c1.804-0.067,2.212,1.432,2.194,5.159l-0.02,3.976c-0.017,3.416,0.035,4.054,0.471,5.929
	L81.152,69.13z M78.523,52.475l1.234-0.15c1.067-0.129,1.235-1.584,1.244-3.444l0.013-2.962c0.008-1.864,0.013-2.966-0.872-2.802
	L78.56,43.41L78.523,52.475z"/>
<path fill="#333333" d="M88.756,57.676l-0.035,5.72c-0.013,1.992,0.34,3.001,1.426,2.977c1.349-0.029,1.395-2.328,1.407-3.996
	c0.025-3.704-1.282-5.941-2.327-8.212l-1.119-2.454c-0.815-1.797-1.649-3.924-1.627-7.702c0.018-3.256,1.18-6.673,4.319-7.345
	c3.239-0.693,3.732,2.261,3.713,4.812l-0.043,5.788l-2.692,0.382l0.037-5.506c0.006-0.866-0.077-2.352-1.13-2.149
	c-1.371,0.264-1.412,2.018-1.421,3.496c-0.02,3.223,0.846,5.024,1.844,7.101l1.534,3.184c1.343,2.757,1.934,5.333,1.915,7.82
	c-0.014,1.931-0.124,8.083-4.431,8.083c-1.712,0-2.591-1.052-3.054-1.836c-0.833-1.468-0.882-3.077-0.872-4.862l0.029-5.102
	L88.756,57.676z"/>
<path fill="#333333" d="M104.404,34.442c2.856-0.599,3.559,0.913,3.522,4.539l-0.078,7.537c-0.048,4.71-0.219,6.576-3.552,6.899
	l-3.311,0.321l-0.135,15.317l-3.102,0.012l0.27-33.284L104.404,34.442z M101.056,49.697l2.088-0.254
	c0.901-0.109,1.194-0.488,1.206-1.667l0.07-7.378c0.012-1.282-0.202-1.686-1.25-1.492l-2.022,0.373L101.056,49.697z"/>
<polygon fill="#333333" points="111.391,69.016 111.792,32.892 121.571,30.839 121.508,35.627 115.555,36.723 115.425,47.586 
	120.701,46.934 120.639,51.673 115.412,52.184 115.267,64.38 121.131,64.206 121.068,68.979 "/>
<path fill="#333333" d="M140.189,58.901c-0.089,5.156-1.664,10.539-8.071,10.547c-6.658,0.007-7.031-6.127-6.988-9.202l0.275-19.528
	c0.065-4.657,0.759-11.233,7.757-12.717c6.035-1.279,7.509,3.021,7.41,8.779l-0.093,5.386l-4.878,0.658l0.103-6.367
	c0.028-1.698-0.135-4.236-2.865-3.722c-2.315,0.435-2.928,2.592-2.963,4.92l-0.34,22.708c-0.055,3.651,0.653,4.531,2.703,4.481
	c2.701-0.067,2.993-2.444,3.032-4.873l0.129-7.945l4.915-0.436L140.189,58.901z"/>
<polygon fill="#333333" points="154.717,29.194 153.91,68.855 148.281,68.877 149.02,30.251 142.949,31.378 143.039,26.333 
	161.827,22.388 161.707,27.897 "/>
<polygon fill="#333333" points="163.901,68.818 164.961,21.73 171.348,20.39 170.192,68.794 "/>
<polygon fill="#333333" points="193.708,68.705 184.672,68.739 177.649,19.067 184.856,17.554 189.562,58.424 196.647,15.079 
	204.961,13.334 "/>
<polygon fill="#333333" points="211.266,68.639 213.134,11.618 238.309,6.333 238.01,14.178 222.507,17.032 221.901,34.435 
	235.568,32.747 235.277,40.461 221.75,41.784 221.072,61.244 236.232,60.794 235.938,68.546 "/>
</svg>
