<?xml version="1.0" encoding="utf-8"?>
<!-- Generator: Adobe Illustrator 16.0.4, SVG Export Plug-In . SVG Version: 6.00 Build 0)  -->
<!DOCTYPE svg PUBLIC "-//W3C//DTD SVG 1.1//EN" "http://www.w3.org/Graphics/SVG/1.1/DTD/svg11.dtd">
<svg version="1.1" xmlns="http://www.w3.org/2000/svg" xmlns:xlink="http://www.w3.org/1999/xlink" x="0px" y="0px"
	 width="229.167px" height="502.779px" viewBox="0 0 229.167 502.779" enable-background="new 0 0 229.167 502.779"
	 xml:space="preserve">
<g id="_x33_">
	<g id="Layer_2_copy_2">
		<polygon fill="#FFFFFF" points="37.736,8.423 -0.004,172.283 -0.004,8.423 		"/>
		<polygon fill="#FFFFFF" points="39.776,286.062 95.976,486.492 8.625,486.492 -0.004,448.953 -0.004,232.433 68.886,142.493 
			158.266,142.493 		"/>
		<path fill="#FFFFFF" d="M215.136,388.973c-2.04,9.49-3.39,16.25-3.39,21.68c0,13.641,6.21,22.04,17.42,24.38v50.021
			c-11.841,5.54-24.841,8.21-39.08,8.21c-38.61,0-62.3-21-62.3-55.53c0-10.83,2.699-30.479,8.8-56.88l55.52-238.36h37.061v185.68
			L215.136,388.973z"/>
	</g>
</g>
<g id="_x34_">
	<g id="Layer_2_copy_3">
		<polygon fill="#FFFFFF" points="272.016,142.493 229.166,328.173 229.166,142.493 		"/>
		<path fill="#FFFFFF" d="M414.886,142.493l-79.22,344h-81.931l6.09-25.06c-9.229,10.55-19.43,18.38-30.659,23.62v-50.021
			c2.14,0.45,4.46,0.681,6.96,0.681c20.989,0,33.859-13.561,41.3-46.05l56.88-247.17H414.886z"/>
	</g>
</g>
</svg>
