<?xml version="1.0" encoding="utf-8"?>
<!-- Generator: Adobe Illustrator 16.0.4, SVG Export Plug-In . SVG Version: 6.00 Build 0)  -->
<!DOCTYPE svg PUBLIC "-//W3C//DTD SVG 1.1//EN" "http://www.w3.org/Graphics/SVG/1.1/DTD/svg11.dtd">
<svg version="1.1" xmlns="http://www.w3.org/2000/svg" xmlns:xlink="http://www.w3.org/1999/xlink" x="0px" y="0px"
	 width="229.167px" height="502.779px" viewBox="0 0 229.167 502.779" enable-background="new 0 0 229.167 502.779"
	 xml:space="preserve">
<g id="_x35_">
	<g id="Layer_2_copy_4">
		<path fill="#FFFFFF" d="M92.712,135.053c-44.28,0-73.38,12.27-92.71,33.24v322.76c10.14,1.91,21.42,2.87,33.8,2.87
			c75.16,0,103.6-36.55,118.5-108.34l2.71-12.851h-77.87l-5.42,23.01c-6.1,26.41-15.57,37.24-33.86,37.24
			c-18.279,0-25.729-9.47-25.729-23.01c0-3.38,0.68-7.46,1.359-10.84l14.891-68.38h137.46l16.25-70.43
			c5.42-22.35,7.45-35.89,7.45-48.08C189.542,161.463,155.682,135.053,92.712,135.053z M107.611,234.593l-8.81,41.31h-57.55
			l10.83-46.73c6.1-25.05,14.899-34.53,33.859-34.53c16.25,0,24.37,8.13,24.37,22.34
			C110.312,221.053,109.642,225.783,107.611,234.593z"/>
	</g>
</g>
</svg>
