<?xml version="1.0" encoding="utf-8"?>
<!-- Generator: Adobe Illustrator 16.0.4, SVG Export Plug-In . SVG Version: 6.00 Build 0)  -->
<!DOCTYPE svg PUBLIC "-//W3C//DTD SVG 1.1//EN" "http://www.w3.org/Graphics/SVG/1.1/DTD/svg11.dtd">
<svg version="1.1" xmlns="http://www.w3.org/2000/svg" xmlns:xlink="http://www.w3.org/1999/xlink" x="0px" y="0px"
	 width="229.167px" height="502.78px" viewBox="0 0 229.167 502.78" enable-background="new 0 0 229.167 502.78"
	 xml:space="preserve">
<g id="_x31_">
	<g id="Layer_2">
		<path fill="#FFFFFF" d="M201.14,231.88c0,10.83,4.07,18.29,14.9,27.08l13.13,10.87v214c-16.32,6.229-35.43,9.43-57.14,9.43
			c-61.62,0-94.13-23.04-94.13-67.72c0-14.221,0.68-18.29,7.45-48.07l2.71-12.2h74.48l-4.05,16.26
			c-3.39,12.86-4.75,23.69-4.75,30.471c0,14.21,10.16,23.71,26.41,23.71c23.7,0,39.96-22.351,39.96-54.181
			c0-15.569-5.43-23.699-31.15-45.38l-30.47-25.729c-24.38-20.32-35.9-44.02-35.9-71.77c0-60.55,40.8-99.5,106.58-103.87v54.89
			C211.65,192.45,201.14,208.01,201.14,231.88z"/>
	</g>
</g>
</svg>
