<?xml version="1.0" encoding="utf-8"?>
<!-- Generator: Adobe Illustrator 16.0.4, SVG Export Plug-In . SVG Version: 6.00 Build 0)  -->
<!DOCTYPE svg PUBLIC "-//W3C//DTD SVG 1.1//EN" "http://www.w3.org/Graphics/SVG/1.1/DTD/svg11.dtd">
<svg version="1.1" xmlns="http://www.w3.org/2000/svg" xmlns:xlink="http://www.w3.org/1999/xlink" x="0px" y="0px"
	 width="229.167px" height="502.779px" viewBox="0 0 229.167 502.779" enable-background="new 0 0 229.167 502.779"
	 xml:space="preserve">
<g id="_x31_">
	<g id="Layer_2">
		<path fill="#FFFFFF" d="M-28.028,231.883c0,10.83,4.07,18.29,14.9,27.08l13.13,10.87v214c-16.32,6.229-35.43,9.43-57.14,9.43
			c-61.62,0-94.13-23.04-94.13-67.72c0-14.221,0.68-18.29,7.45-48.07l2.71-12.2h74.48l-4.05,16.26
			c-3.39,12.86-4.75,23.69-4.75,30.471c0,14.21,10.16,23.71,26.41,23.71c23.7,0,39.96-22.351,39.96-54.181
			c0-15.569-5.43-23.699-31.15-45.38l-30.47-25.729c-24.38-20.32-35.9-44.02-35.9-71.77c0-60.55,40.8-99.5,106.58-103.87v54.89
			C-17.518,192.453-28.028,208.013-28.028,231.883z"/>
	</g>
</g>
<g id="_x32_">
	<g id="Layer_2_copy">
		<path fill="#FFFFFF" d="M67.452,372.053c0,56.71-23.7,95.11-67.45,111.78v-214l26.15,21.64
			C55.262,315.843,67.452,338.862,67.452,372.053z"/>
		<path fill="#FFFFFF" d="M103.342,199.393c0,7.43-1.36,16.23-3.39,25.04l-6.09,27.09h-69.75l5.42-24.39
			c1.36-6.08,2.03-10.82,2.03-15.56c0-14.91-8.8-22.34-25.73-22.34c-2.02,0-3.97,0.15-5.83,0.44v-54.89c4.1-0.27,8.3-0.41,12.6-0.41
			C69.482,134.373,103.342,158.073,103.342,199.393z"/>
		<polygon fill="#FFFFFF" points="229.162,172.283 209.352,258.292 229.162,232.433 229.162,448.953 197.162,309.763 
			156.532,486.492 76.632,486.492 187.002,8.423 229.162,8.423 		"/>
	</g>
</g>
<g id="_x33_">
	<g id="Layer_2_copy_2">
		<polygon fill="#FFFFFF" points="266.902,8.423 229.162,172.283 229.162,8.423 		"/>
		<polygon fill="#FFFFFF" points="268.942,286.062 325.142,486.492 237.792,486.492 229.162,448.953 229.162,232.433 
			298.052,142.493 387.432,142.493 		"/>
	</g>
</g>
</svg>
