<?xml version="1.0" encoding="utf-8"?>
<!-- Generator: Adobe Illustrator 16.0.4, SVG Export Plug-In . SVG Version: 6.00 Build 0)  -->
<!DOCTYPE svg PUBLIC "-//W3C//DTD SVG 1.1//EN" "http://www.w3.org/Graphics/SVG/1.1/DTD/svg11.dtd">
<svg version="1.1" xmlns="http://www.w3.org/2000/svg" xmlns:xlink="http://www.w3.org/1999/xlink" x="0px" y="0px"
	 width="229.167px" height="502.779px" viewBox="0 0 229.167 502.779" enable-background="new 0 0 229.167 502.779"
	 xml:space="preserve">
<g id="_x34_">
	<g id="Layer_2_copy_3">
		<polygon fill="#FFFFFF" points="42.849,142.493 -0.001,328.173 -0.001,142.493 		"/>
		<path fill="#FFFFFF" d="M185.719,142.493l-79.22,344H24.568l6.09-25.06c-9.229,10.55-19.43,18.38-30.659,23.62v-50.021
			c2.14,0.45,4.46,0.681,6.96,0.681c20.989,0,33.859-13.561,41.3-46.05l56.88-247.17H185.719z"/>
		<path fill="#FFFFFF" d="M198.639,233.903l-25.05,113.1c-8.12,35.89-10.84,53.479-10.84,67.71c0,42.3,22.75,68.109,66.42,76.34
			v-322.76C213.608,185.153,204.369,207.643,198.639,233.903z"/>
	</g>
</g>
</svg>
